%TF.GenerationSoftware,KiCad,Pcbnew,9.0.4*%
%TF.CreationDate,2025-11-18T18:04:40+01:00*%
%TF.ProjectId,Nanopipetes,4e616e6f-7069-4706-9574-65732e6b6963,rev?*%
%TF.SameCoordinates,Original*%
%TF.FileFunction,Paste,Top*%
%TF.FilePolarity,Positive*%
%FSLAX46Y46*%
G04 Gerber Fmt 4.6, Leading zero omitted, Abs format (unit mm)*
G04 Created by KiCad (PCBNEW 9.0.4) date 2025-11-18 18:04:40*
%MOMM*%
%LPD*%
G01*
G04 APERTURE LIST*
G04 Aperture macros list*
%AMRoundRect*
0 Rectangle with rounded corners*
0 $1 Rounding radius*
0 $2 $3 $4 $5 $6 $7 $8 $9 X,Y pos of 4 corners*
0 Add a 4 corners polygon primitive as box body*
4,1,4,$2,$3,$4,$5,$6,$7,$8,$9,$2,$3,0*
0 Add four circle primitives for the rounded corners*
1,1,$1+$1,$2,$3*
1,1,$1+$1,$4,$5*
1,1,$1+$1,$6,$7*
1,1,$1+$1,$8,$9*
0 Add four rect primitives between the rounded corners*
20,1,$1+$1,$2,$3,$4,$5,0*
20,1,$1+$1,$4,$5,$6,$7,0*
20,1,$1+$1,$6,$7,$8,$9,0*
20,1,$1+$1,$8,$9,$2,$3,0*%
G04 Aperture macros list end*
%ADD10C,0.010000*%
%ADD11R,1.475000X0.300000*%
%ADD12R,0.300000X1.475000*%
%ADD13R,6.760000X5.765000*%
%ADD14RoundRect,0.200000X-0.200000X-0.275000X0.200000X-0.275000X0.200000X0.275000X-0.200000X0.275000X0*%
%ADD15R,1.900000X2.400000*%
%ADD16RoundRect,0.140000X-0.140000X-0.170000X0.140000X-0.170000X0.140000X0.170000X-0.140000X0.170000X0*%
%ADD17RoundRect,0.250000X-0.412500X-0.925000X0.412500X-0.925000X0.412500X0.925000X-0.412500X0.925000X0*%
%ADD18RoundRect,0.200000X-0.275000X0.200000X-0.275000X-0.200000X0.275000X-0.200000X0.275000X0.200000X0*%
%ADD19RoundRect,0.375000X-0.625000X-0.375000X0.625000X-0.375000X0.625000X0.375000X-0.625000X0.375000X0*%
%ADD20RoundRect,0.500000X-0.500000X-1.400000X0.500000X-1.400000X0.500000X1.400000X-0.500000X1.400000X0*%
%ADD21RoundRect,0.140000X-0.170000X0.140000X-0.170000X-0.140000X0.170000X-0.140000X0.170000X0.140000X0*%
%ADD22RoundRect,0.200000X0.275000X-0.200000X0.275000X0.200000X-0.275000X0.200000X-0.275000X-0.200000X0*%
%ADD23RoundRect,0.140000X0.140000X0.170000X-0.140000X0.170000X-0.140000X-0.170000X0.140000X-0.170000X0*%
%ADD24RoundRect,0.225000X0.250000X-0.225000X0.250000X0.225000X-0.250000X0.225000X-0.250000X-0.225000X0*%
%ADD25RoundRect,0.140000X0.170000X-0.140000X0.170000X0.140000X-0.170000X0.140000X-0.170000X-0.140000X0*%
%ADD26RoundRect,0.225000X-0.225000X-0.250000X0.225000X-0.250000X0.225000X0.250000X-0.225000X0.250000X0*%
%ADD27RoundRect,0.150000X-0.150000X0.587500X-0.150000X-0.587500X0.150000X-0.587500X0.150000X0.587500X0*%
%ADD28R,1.528000X0.650000*%
%ADD29RoundRect,0.225000X0.225000X0.250000X-0.225000X0.250000X-0.225000X-0.250000X0.225000X-0.250000X0*%
%ADD30RoundRect,0.250000X-0.625000X0.312500X-0.625000X-0.312500X0.625000X-0.312500X0.625000X0.312500X0*%
%ADD31RoundRect,0.032500X0.097500X-0.387500X0.097500X0.387500X-0.097500X0.387500X-0.097500X-0.387500X0*%
%ADD32RoundRect,0.032500X0.387500X-0.097500X0.387500X0.097500X-0.387500X0.097500X-0.387500X-0.097500X0*%
%ADD33RoundRect,0.225000X-0.250000X0.225000X-0.250000X-0.225000X0.250000X-0.225000X0.250000X0.225000X0*%
%ADD34RoundRect,0.250000X0.335000X0.335000X-0.335000X0.335000X-0.335000X-0.335000X0.335000X-0.335000X0*%
%ADD35RoundRect,0.062500X0.337500X0.062500X-0.337500X0.062500X-0.337500X-0.062500X0.337500X-0.062500X0*%
%ADD36RoundRect,0.062500X0.062500X0.337500X-0.062500X0.337500X-0.062500X-0.337500X0.062500X-0.337500X0*%
%ADD37RoundRect,0.200000X0.200000X0.275000X-0.200000X0.275000X-0.200000X-0.275000X0.200000X-0.275000X0*%
%ADD38R,1.525000X0.650000*%
%ADD39R,1.200000X0.600000*%
%ADD40R,0.300000X0.850000*%
%ADD41R,0.850000X0.300000*%
%ADD42R,0.600000X0.600000*%
%ADD43RoundRect,0.250000X0.925000X-0.412500X0.925000X0.412500X-0.925000X0.412500X-0.925000X-0.412500X0*%
%ADD44R,0.300000X0.750000*%
%ADD45R,0.300000X0.600000*%
%ADD46R,0.600000X0.300000*%
%ADD47R,4.150000X2.425000*%
%ADD48R,4.440000X4.440000*%
%ADD49RoundRect,0.375000X-0.375000X0.625000X-0.375000X-0.625000X0.375000X-0.625000X0.375000X0.625000X0*%
%ADD50RoundRect,0.500000X-1.400000X0.500000X-1.400000X-0.500000X1.400000X-0.500000X1.400000X0.500000X0*%
%ADD51RoundRect,0.250000X0.650000X-0.325000X0.650000X0.325000X-0.650000X0.325000X-0.650000X-0.325000X0*%
%ADD52RoundRect,0.250000X0.412500X0.925000X-0.412500X0.925000X-0.412500X-0.925000X0.412500X-0.925000X0*%
%ADD53R,0.950000X0.800000*%
%ADD54R,0.650000X1.525000*%
%ADD55RoundRect,0.375000X0.375000X-0.625000X0.375000X0.625000X-0.375000X0.625000X-0.375000X-0.625000X0*%
%ADD56RoundRect,0.500000X1.400000X-0.500000X1.400000X0.500000X-1.400000X0.500000X-1.400000X-0.500000X0*%
%ADD57RoundRect,0.135000X-0.135000X-0.185000X0.135000X-0.185000X0.135000X0.185000X-0.135000X0.185000X0*%
%ADD58RoundRect,0.250000X-0.475000X0.250000X-0.475000X-0.250000X0.475000X-0.250000X0.475000X0.250000X0*%
G04 APERTURE END LIST*
D10*
%TO.C,IC14*%
X147260000Y-66275000D02*
X146240000Y-66275000D01*
X146240000Y-65255000D01*
X147260000Y-65255000D01*
X147260000Y-66275000D01*
G36*
X147260000Y-66275000D02*
G01*
X146240000Y-66275000D01*
X146240000Y-65255000D01*
X147260000Y-65255000D01*
X147260000Y-66275000D01*
G37*
%TD*%
D11*
%TO.C,IC15*%
X160630500Y-80362900D03*
X160630499Y-80862900D03*
X160630500Y-81362900D03*
X160630500Y-81862900D03*
X160630500Y-82362900D03*
X160630500Y-82862900D03*
X160630499Y-83362900D03*
X160630500Y-83862900D03*
X160630500Y-84362900D03*
X160630500Y-84862900D03*
X160630500Y-85362900D03*
X160630499Y-85862900D03*
X160630500Y-86362900D03*
X160630500Y-86862900D03*
X160630500Y-87362901D03*
X160630500Y-87862900D03*
X160630499Y-88362900D03*
X160630500Y-88862900D03*
X160630500Y-89362900D03*
X160630499Y-89862900D03*
X160630500Y-90362900D03*
X160630500Y-90862899D03*
X160630500Y-91362900D03*
X160630500Y-91862900D03*
X160630499Y-92362900D03*
X160630500Y-92862900D03*
X160630500Y-93362900D03*
X160630500Y-93862900D03*
X160630500Y-94362900D03*
X160630499Y-94862900D03*
X160630500Y-95362900D03*
X160630500Y-95862900D03*
X160630500Y-96362900D03*
X160630500Y-96862900D03*
X160630499Y-97362900D03*
X160630500Y-97862900D03*
D12*
X162618500Y-99850900D03*
X163118500Y-99850901D03*
X163618500Y-99850900D03*
X164118500Y-99850900D03*
X164618500Y-99850900D03*
X165118500Y-99850900D03*
X165618500Y-99850901D03*
X166118500Y-99850900D03*
X166618500Y-99850900D03*
X167118500Y-99850900D03*
X167618500Y-99850900D03*
X168118500Y-99850901D03*
X168618500Y-99850900D03*
X169118500Y-99850900D03*
X169618501Y-99850900D03*
X170118500Y-99850900D03*
X170618500Y-99850901D03*
X171118500Y-99850900D03*
X171618500Y-99850900D03*
X172118500Y-99850901D03*
X172618500Y-99850900D03*
X173118499Y-99850900D03*
X173618500Y-99850900D03*
X174118500Y-99850900D03*
X174618500Y-99850901D03*
X175118500Y-99850900D03*
X175618500Y-99850900D03*
X176118500Y-99850900D03*
X176618500Y-99850900D03*
X177118500Y-99850901D03*
X177618500Y-99850900D03*
X178118500Y-99850900D03*
X178618500Y-99850900D03*
X179118500Y-99850900D03*
X179618500Y-99850901D03*
X180118500Y-99850900D03*
D11*
X182106500Y-97862900D03*
X182106501Y-97362900D03*
X182106500Y-96862900D03*
X182106500Y-96362900D03*
X182106500Y-95862900D03*
X182106500Y-95362900D03*
X182106501Y-94862900D03*
X182106500Y-94362900D03*
X182106500Y-93862900D03*
X182106500Y-93362900D03*
X182106500Y-92862900D03*
X182106501Y-92362900D03*
X182106500Y-91862900D03*
X182106500Y-91362900D03*
X182106500Y-90862899D03*
X182106500Y-90362900D03*
X182106501Y-89862900D03*
X182106500Y-89362900D03*
X182106500Y-88862900D03*
X182106501Y-88362900D03*
X182106500Y-87862900D03*
X182106500Y-87362901D03*
X182106500Y-86862900D03*
X182106500Y-86362900D03*
X182106501Y-85862900D03*
X182106500Y-85362900D03*
X182106500Y-84862900D03*
X182106500Y-84362900D03*
X182106500Y-83862900D03*
X182106501Y-83362900D03*
X182106500Y-82862900D03*
X182106500Y-82362900D03*
X182106500Y-81862900D03*
X182106500Y-81362900D03*
X182106501Y-80862900D03*
X182106500Y-80362900D03*
D12*
X180118500Y-78374900D03*
X179618500Y-78374899D03*
X179118500Y-78374900D03*
X178618500Y-78374900D03*
X178118500Y-78374900D03*
X177618500Y-78374900D03*
X177118500Y-78374899D03*
X176618500Y-78374900D03*
X176118500Y-78374900D03*
X175618500Y-78374900D03*
X175118500Y-78374900D03*
X174618500Y-78374899D03*
X174118500Y-78374900D03*
X173618500Y-78374900D03*
X173118499Y-78374900D03*
X172618500Y-78374900D03*
X172118500Y-78374899D03*
X171618500Y-78374900D03*
X171118500Y-78374900D03*
X170618500Y-78374899D03*
X170118500Y-78374900D03*
X169618501Y-78374900D03*
X169118500Y-78374900D03*
X168618500Y-78374900D03*
X168118500Y-78374899D03*
X167618500Y-78374900D03*
X167118500Y-78374900D03*
X166618500Y-78374900D03*
X166118500Y-78374900D03*
X165618500Y-78374899D03*
X165118500Y-78374900D03*
X164618500Y-78374900D03*
X164118500Y-78374900D03*
X163618500Y-78374900D03*
X163118500Y-78374899D03*
X162618500Y-78374900D03*
D13*
X171368500Y-89112900D03*
%TD*%
D14*
%TO.C,R16*%
X147575000Y-119949000D03*
X149225000Y-119949000D03*
%TD*%
D15*
%TO.C,Y1*%
X182524100Y-116224300D03*
X178424100Y-116224300D03*
%TD*%
D16*
%TO.C,C152*%
X189650000Y-117250000D03*
X190610000Y-117250000D03*
%TD*%
D17*
%TO.C,C22*%
X149825000Y-44350000D03*
X152900000Y-44350000D03*
%TD*%
D18*
%TO.C,R76*%
X163700000Y-46775000D03*
X163700000Y-48425000D03*
%TD*%
D19*
%TO.C,U1*%
X176224800Y-60640700D03*
X176224800Y-62940700D03*
D20*
X182524800Y-62940700D03*
D19*
X176224800Y-65240700D03*
%TD*%
D21*
%TO.C,C26*%
X122758000Y-88440000D03*
X122758000Y-89400000D03*
%TD*%
D22*
%TO.C,R70*%
X158850000Y-48350000D03*
X158850000Y-46700000D03*
%TD*%
D21*
%TO.C,C104*%
X180285500Y-75566400D03*
X180285500Y-76526400D03*
%TD*%
D23*
%TO.C,C41*%
X140956900Y-99650000D03*
X139996900Y-99650000D03*
%TD*%
D24*
%TO.C,C120*%
X172310000Y-76320000D03*
X172310000Y-74770000D03*
%TD*%
D16*
%TO.C,C112*%
X157800000Y-95274600D03*
X158760000Y-95274600D03*
%TD*%
D25*
%TO.C,C96*%
X180496700Y-102280000D03*
X180496700Y-101320000D03*
%TD*%
D26*
%TO.C,C54*%
X133808000Y-127220000D03*
X135358000Y-127220000D03*
%TD*%
D27*
%TO.C,Q1*%
X171762500Y-136412500D03*
X169862500Y-136412500D03*
X170812500Y-138287500D03*
%TD*%
D28*
%TO.C,IC5*%
X126708000Y-101080000D03*
X126708000Y-102350000D03*
X126708000Y-103620000D03*
X126708000Y-104890000D03*
X132130000Y-104890000D03*
X132130000Y-103620000D03*
X132130000Y-102350000D03*
X132130000Y-101080000D03*
%TD*%
D16*
%TO.C,C32*%
X133658000Y-102350000D03*
X134618000Y-102350000D03*
%TD*%
D29*
%TO.C,C154*%
X207781300Y-65135600D03*
X206231300Y-65135600D03*
%TD*%
D30*
%TO.C,R13*%
X124358000Y-128200000D03*
X124358000Y-131125000D03*
%TD*%
D21*
%TO.C,C4*%
X146400000Y-81645000D03*
X146400000Y-82605000D03*
%TD*%
D22*
%TO.C,R22*%
X142400000Y-48400000D03*
X142400000Y-46750000D03*
%TD*%
D25*
%TO.C,C64*%
X135400000Y-44080000D03*
X135400000Y-43120000D03*
%TD*%
D26*
%TO.C,C50*%
X133858000Y-133850000D03*
X135408000Y-133850000D03*
%TD*%
D31*
%TO.C,IC14*%
X146000000Y-67200000D03*
X146500000Y-67200000D03*
X147000000Y-67200000D03*
X147500000Y-67200000D03*
D32*
X148185000Y-66515000D03*
X148185000Y-66015000D03*
X148185000Y-65515000D03*
X148185000Y-65015000D03*
D31*
X147500000Y-64330000D03*
X147000000Y-64330000D03*
X146500000Y-64330000D03*
X146000000Y-64330000D03*
D32*
X145315000Y-65015000D03*
X145315000Y-65515000D03*
X145315000Y-66015000D03*
X145315000Y-66515000D03*
%TD*%
D26*
%TO.C,C66*%
X145650000Y-61200000D03*
X147200000Y-61200000D03*
%TD*%
D30*
%TO.C,R6*%
X124430000Y-95475000D03*
X124430000Y-98400000D03*
%TD*%
D25*
%TO.C,C10*%
X146400000Y-80345000D03*
X146400000Y-79385000D03*
%TD*%
D23*
%TO.C,C60*%
X141000000Y-113421100D03*
X140040000Y-113421100D03*
%TD*%
D16*
%TO.C,C34*%
X133570000Y-95850000D03*
X134530000Y-95850000D03*
%TD*%
D30*
%TO.C,R5*%
X124508000Y-101950000D03*
X124508000Y-104875000D03*
%TD*%
D26*
%TO.C,C33*%
X133908000Y-100950000D03*
X135458000Y-100950000D03*
%TD*%
D16*
%TO.C,C80*%
X135220000Y-73576000D03*
X136180000Y-73576000D03*
%TD*%
D27*
%TO.C,Q2*%
X178175000Y-136425000D03*
X176275000Y-136425000D03*
X177225000Y-138300000D03*
%TD*%
D21*
%TO.C,C47*%
X122708000Y-121450000D03*
X122708000Y-122410000D03*
%TD*%
D29*
%TO.C,C7*%
X198275000Y-81775000D03*
X196725000Y-81775000D03*
%TD*%
D16*
%TO.C,C89*%
X161240000Y-101600000D03*
X162200000Y-101600000D03*
%TD*%
D21*
%TO.C,C68*%
X138800000Y-53840000D03*
X138800000Y-54800000D03*
%TD*%
D14*
%TO.C,R28*%
X128380000Y-76776000D03*
X130030000Y-76776000D03*
%TD*%
D23*
%TO.C,C103*%
X184781100Y-79809100D03*
X183821100Y-79809100D03*
%TD*%
%TO.C,C58*%
X142425000Y-120900000D03*
X141465000Y-120900000D03*
%TD*%
D25*
%TO.C,C78*%
X128580000Y-75456000D03*
X128580000Y-74496000D03*
%TD*%
D16*
%TO.C,C132*%
X171565000Y-120062500D03*
X172525000Y-120062500D03*
%TD*%
%TO.C,C51*%
X133558000Y-128620000D03*
X134518000Y-128620000D03*
%TD*%
D14*
%TO.C,R27*%
X127550000Y-51200000D03*
X129200000Y-51200000D03*
%TD*%
D16*
%TO.C,C49*%
X133598000Y-115700000D03*
X134558000Y-115700000D03*
%TD*%
D23*
%TO.C,C100*%
X184687000Y-95600000D03*
X183727000Y-95600000D03*
%TD*%
D16*
%TO.C,C53*%
X133508000Y-122250000D03*
X134468000Y-122250000D03*
%TD*%
D14*
%TO.C,R17*%
X147575000Y-118450000D03*
X149225000Y-118450000D03*
%TD*%
D22*
%TO.C,R20*%
X142200000Y-54250000D03*
X142200000Y-52600000D03*
%TD*%
D14*
%TO.C,R8*%
X147375000Y-106250000D03*
X149025000Y-106250000D03*
%TD*%
D21*
%TO.C,C115*%
X164400000Y-75600000D03*
X164400000Y-76560000D03*
%TD*%
D26*
%TO.C,C56*%
X133808000Y-114350000D03*
X135358000Y-114350000D03*
%TD*%
D23*
%TO.C,C97*%
X184650000Y-98000000D03*
X183690000Y-98000000D03*
%TD*%
D21*
%TO.C,C2*%
X156975000Y-57465000D03*
X156975000Y-58425000D03*
%TD*%
D16*
%TO.C,C130*%
X166588800Y-128331400D03*
X167548800Y-128331400D03*
%TD*%
D22*
%TO.C,R67*%
X173250000Y-137737500D03*
X173250000Y-136087500D03*
%TD*%
D25*
%TO.C,C82*%
X135400000Y-75560000D03*
X135400000Y-74600000D03*
%TD*%
D15*
%TO.C,Y2*%
X199080300Y-60769700D03*
X203180300Y-60769700D03*
%TD*%
D23*
%TO.C,C137*%
X201782300Y-52710600D03*
X200822300Y-52710600D03*
%TD*%
%TO.C,C83*%
X128360000Y-62200000D03*
X127400000Y-62200000D03*
%TD*%
D14*
%TO.C,R33*%
X127980000Y-60976000D03*
X129630000Y-60976000D03*
%TD*%
D24*
%TO.C,C11*%
X147667000Y-80495000D03*
X147667000Y-78945000D03*
%TD*%
D25*
%TO.C,C85*%
X137380000Y-69136000D03*
X137380000Y-68176000D03*
%TD*%
D33*
%TO.C,C5*%
X147667000Y-82045000D03*
X147667000Y-83595000D03*
%TD*%
D25*
%TO.C,C92*%
X167981900Y-102280000D03*
X167981900Y-101320000D03*
%TD*%
D26*
%TO.C,C99*%
X184050000Y-85100000D03*
X185600000Y-85100000D03*
%TD*%
D28*
%TO.C,IC10*%
X126586000Y-127330000D03*
X126586000Y-128600000D03*
X126586000Y-129870000D03*
X126586000Y-131140000D03*
X132008000Y-131140000D03*
X132008000Y-129870000D03*
X132008000Y-128600000D03*
X132008000Y-127330000D03*
%TD*%
D16*
%TO.C,C91*%
X158200000Y-96566200D03*
X159160000Y-96566200D03*
%TD*%
%TO.C,C55*%
X133558000Y-135200000D03*
X134518000Y-135200000D03*
%TD*%
D14*
%TO.C,R77*%
X172700000Y-48100000D03*
X174350000Y-48100000D03*
%TD*%
D30*
%TO.C,R12*%
X124358000Y-115325000D03*
X124358000Y-118250000D03*
%TD*%
D34*
%TO.C,U9*%
X196721300Y-52109600D03*
X196721300Y-50659600D03*
X196721300Y-49209600D03*
X195271300Y-52109600D03*
X195271300Y-50659600D03*
X195271300Y-49209600D03*
X193821300Y-52109600D03*
X193821300Y-50659600D03*
X193821300Y-49209600D03*
D35*
X199721300Y-54409600D03*
X199721300Y-53909600D03*
X199721300Y-53409600D03*
X199721300Y-52909600D03*
X199721300Y-52409600D03*
X199721300Y-51909600D03*
X199721300Y-51409600D03*
X199721300Y-50909600D03*
X199721300Y-50409600D03*
X199721300Y-49909600D03*
X199721300Y-49409600D03*
X199721300Y-48909600D03*
X199721300Y-48409600D03*
X199721300Y-47909600D03*
X199721300Y-47409600D03*
X199721300Y-46909600D03*
D36*
X199021300Y-46209600D03*
X198521300Y-46209600D03*
X198021300Y-46209600D03*
X197521300Y-46209600D03*
X197021300Y-46209600D03*
X196521300Y-46209600D03*
X196021300Y-46209600D03*
X195521300Y-46209600D03*
X195021300Y-46209600D03*
X194521300Y-46209600D03*
X194021300Y-46209600D03*
X193521300Y-46209600D03*
X193021300Y-46209600D03*
X192521300Y-46209600D03*
X192021300Y-46209600D03*
X191521300Y-46209600D03*
D35*
X190821300Y-46909600D03*
X190821300Y-47409600D03*
X190821300Y-47909600D03*
X190821300Y-48409600D03*
X190821300Y-48909600D03*
X190821300Y-49409600D03*
X190821300Y-49909600D03*
X190821300Y-50409600D03*
X190821300Y-50909600D03*
X190821300Y-51409600D03*
X190821300Y-51909600D03*
X190821300Y-52409600D03*
X190821300Y-52909600D03*
X190821300Y-53409600D03*
X190821300Y-53909600D03*
X190821300Y-54409600D03*
D36*
X191521300Y-55109600D03*
X192021300Y-55109600D03*
X192521300Y-55109600D03*
X193021300Y-55109600D03*
X193521300Y-55109600D03*
X194021300Y-55109600D03*
X194521300Y-55109600D03*
X195021300Y-55109600D03*
X195521300Y-55109600D03*
X196021300Y-55109600D03*
X196521300Y-55109600D03*
X197021300Y-55109600D03*
X197521300Y-55109600D03*
X198021300Y-55109600D03*
X198521300Y-55109600D03*
X199021300Y-55109600D03*
%TD*%
D23*
%TO.C,C117*%
X184770000Y-83800000D03*
X183810000Y-83800000D03*
%TD*%
D25*
%TO.C,C81*%
X128200000Y-64200000D03*
X128200000Y-63240000D03*
%TD*%
D18*
%TO.C,R31*%
X133980000Y-62351000D03*
X133980000Y-64001000D03*
%TD*%
D33*
%TO.C,C23*%
X196776000Y-89575000D03*
X196776000Y-91125000D03*
%TD*%
D16*
%TO.C,C108*%
X158253800Y-80940400D03*
X159213800Y-80940400D03*
%TD*%
D25*
%TO.C,C94*%
X171400000Y-102280000D03*
X171400000Y-101320000D03*
%TD*%
D16*
%TO.C,C142*%
X194981300Y-70610600D03*
X195941300Y-70610600D03*
%TD*%
%TO.C,C113*%
X158200000Y-91314900D03*
X159160000Y-91314900D03*
%TD*%
D29*
%TO.C,C63*%
X140700000Y-112171100D03*
X139150000Y-112171100D03*
%TD*%
D21*
%TO.C,C116*%
X177492500Y-75743200D03*
X177492500Y-76703200D03*
%TD*%
D37*
%TO.C,R58*%
X199331300Y-57660600D03*
X197681300Y-57660600D03*
%TD*%
%TO.C,R60*%
X204525000Y-47375000D03*
X202875000Y-47375000D03*
%TD*%
D16*
%TO.C,C143*%
X196590000Y-45050000D03*
X197550000Y-45050000D03*
%TD*%
%TO.C,C111*%
X158200000Y-82107200D03*
X159160000Y-82107200D03*
%TD*%
D23*
%TO.C,C69*%
X140880000Y-54000000D03*
X139920000Y-54000000D03*
%TD*%
D26*
%TO.C,C40*%
X145175800Y-108600000D03*
X146725800Y-108600000D03*
%TD*%
%TO.C,C52*%
X133808000Y-120900000D03*
X135358000Y-120900000D03*
%TD*%
D23*
%TO.C,C126*%
X184008800Y-129581400D03*
X183048800Y-129581400D03*
%TD*%
D29*
%TO.C,C6*%
X173824800Y-65240700D03*
X172274800Y-65240700D03*
%TD*%
D16*
%TO.C,C145*%
X191025000Y-45050000D03*
X191985000Y-45050000D03*
%TD*%
D28*
%TO.C,IC12*%
X126608000Y-133930000D03*
X126608000Y-135200000D03*
X126608000Y-136470000D03*
X126608000Y-137740000D03*
X132030000Y-137740000D03*
X132030000Y-136470000D03*
X132030000Y-135200000D03*
X132030000Y-133930000D03*
%TD*%
D21*
%TO.C,C29*%
X122758000Y-108190000D03*
X122758000Y-109150000D03*
%TD*%
D16*
%TO.C,C36*%
X133498000Y-108930000D03*
X134458000Y-108930000D03*
%TD*%
D22*
%TO.C,R34*%
X133980000Y-75426000D03*
X133980000Y-73776000D03*
%TD*%
D38*
%TO.C,IC2*%
X139625000Y-85342500D03*
X139625000Y-86612500D03*
X139625000Y-87882500D03*
X139625000Y-89152500D03*
X145049000Y-89152500D03*
X145049000Y-87882500D03*
X145049000Y-86612500D03*
X145049000Y-85342500D03*
%TD*%
D24*
%TO.C,C19*%
X147900000Y-45050000D03*
X147900000Y-43500000D03*
%TD*%
D16*
%TO.C,C77*%
X135220000Y-63976000D03*
X136180000Y-63976000D03*
%TD*%
D14*
%TO.C,R19*%
X147575000Y-114400000D03*
X149225000Y-114400000D03*
%TD*%
D29*
%TO.C,C24*%
X173775000Y-55900000D03*
X172225000Y-55900000D03*
%TD*%
D16*
%TO.C,C30*%
X133608000Y-89200000D03*
X134568000Y-89200000D03*
%TD*%
%TO.C,C148*%
X188760300Y-48700000D03*
X189720300Y-48700000D03*
%TD*%
D39*
%TO.C,IC3*%
X192576000Y-89625000D03*
X192576001Y-90575000D03*
X192576000Y-91525000D03*
X195076000Y-91525000D03*
X195076000Y-89625000D03*
%TD*%
D40*
%TO.C,IC13*%
X144925000Y-115200000D03*
X144425000Y-115200000D03*
X143925000Y-115200000D03*
X143425000Y-115200000D03*
X142925000Y-115200000D03*
X142425000Y-115200000D03*
D41*
X141725000Y-115900000D03*
X141725000Y-116400000D03*
X141725000Y-116900000D03*
X141725000Y-117400000D03*
X141725000Y-117900000D03*
X141725000Y-118400000D03*
D40*
X142425000Y-119100000D03*
X142925000Y-119100000D03*
X143425000Y-119100000D03*
X143925000Y-119100000D03*
X144425000Y-119100000D03*
X144925000Y-119100000D03*
D41*
X145625000Y-118400000D03*
X145625000Y-117900000D03*
X145625000Y-117400000D03*
X145625000Y-116900000D03*
X145625000Y-116400000D03*
X145625000Y-115900000D03*
D42*
X143675000Y-117150000D03*
%TD*%
D21*
%TO.C,C109*%
X173568000Y-75637100D03*
X173568000Y-76597100D03*
%TD*%
D16*
%TO.C,C61*%
X145075000Y-114000000D03*
X146035000Y-114000000D03*
%TD*%
D21*
%TO.C,C28*%
X122808000Y-95090000D03*
X122808000Y-96050000D03*
%TD*%
D29*
%TO.C,C138*%
X192381300Y-56510600D03*
X190831300Y-56510600D03*
%TD*%
D14*
%TO.C,R55*%
X190431300Y-60410600D03*
X192081300Y-60410600D03*
%TD*%
%TO.C,R25*%
X127550000Y-47000000D03*
X129200000Y-47000000D03*
%TD*%
D24*
%TO.C,C86*%
X133600000Y-44375000D03*
X133600000Y-42825000D03*
%TD*%
D38*
%TO.C,IC18*%
X136824000Y-53620000D03*
X136824000Y-52350000D03*
X136824000Y-51080000D03*
X136824000Y-49810000D03*
X136824000Y-48540000D03*
X136824000Y-47270000D03*
X136824000Y-46000000D03*
X131400000Y-46000000D03*
X131400000Y-47270000D03*
X131400000Y-48540000D03*
X131400000Y-49810000D03*
X131400000Y-51080000D03*
X131400000Y-52350000D03*
X131400000Y-53620000D03*
%TD*%
D28*
%TO.C,IC9*%
X126608000Y-114430000D03*
X126608000Y-115700000D03*
X126608000Y-116970000D03*
X126608000Y-118240000D03*
X132030000Y-118240000D03*
X132030000Y-116970000D03*
X132030000Y-115700000D03*
X132030000Y-114430000D03*
%TD*%
D26*
%TO.C,C62*%
X145375000Y-112750000D03*
X146925000Y-112750000D03*
%TD*%
D23*
%TO.C,C15*%
X138109000Y-86582500D03*
X137149000Y-86582500D03*
%TD*%
D26*
%TO.C,C114*%
X184090000Y-82030000D03*
X185640000Y-82030000D03*
%TD*%
D23*
%TO.C,C101*%
X184740300Y-87092300D03*
X183780300Y-87092300D03*
%TD*%
D37*
%TO.C,R21*%
X140650000Y-52600000D03*
X139000000Y-52600000D03*
%TD*%
D30*
%TO.C,R15*%
X124408000Y-134850000D03*
X124408000Y-137775000D03*
%TD*%
D23*
%TO.C,C147*%
X200021300Y-56259600D03*
X199061300Y-56259600D03*
%TD*%
D29*
%TO.C,C12*%
X137849000Y-85282500D03*
X136299000Y-85282500D03*
%TD*%
D22*
%TO.C,R65*%
X155200000Y-131100000D03*
X155200000Y-129450000D03*
%TD*%
D14*
%TO.C,R18*%
X147575000Y-115900000D03*
X149225000Y-115900000D03*
%TD*%
D43*
%TO.C,C8*%
X173124800Y-63315700D03*
X173124800Y-60240700D03*
%TD*%
D29*
%TO.C,C140*%
X192381300Y-58010600D03*
X190831300Y-58010600D03*
%TD*%
%TO.C,C67*%
X147750000Y-70800000D03*
X146200000Y-70800000D03*
%TD*%
D14*
%TO.C,R54*%
X179625000Y-112806100D03*
X181275000Y-112806100D03*
%TD*%
D44*
%TO.C,PS1*%
X159875000Y-62950000D03*
D45*
X160525000Y-63025000D03*
X161175000Y-63025000D03*
X161825000Y-63025000D03*
X162475000Y-63025000D03*
X163125000Y-63025000D03*
X163775000Y-63025000D03*
X164425000Y-63025000D03*
X165075000Y-63025000D03*
D46*
X166125000Y-62025000D03*
X166125000Y-61375000D03*
X166125000Y-60725000D03*
X166125000Y-60075000D03*
X166125000Y-59425000D03*
X166125000Y-58775000D03*
X166125000Y-58125000D03*
X166125000Y-57475000D03*
X166125000Y-56825000D03*
X166125000Y-56175000D03*
X166125000Y-55525000D03*
X166125000Y-54875000D03*
X166125000Y-54225000D03*
D45*
X165075000Y-53225000D03*
X164425000Y-53225000D03*
X163775000Y-53225000D03*
X163125000Y-53225000D03*
X162475000Y-53225000D03*
X161825000Y-53225000D03*
X161175000Y-53225000D03*
X160525000Y-53225000D03*
X159875000Y-53225000D03*
D46*
X158825000Y-54225000D03*
X158825000Y-54875000D03*
X158825000Y-55525000D03*
X158825000Y-56175000D03*
X158825000Y-56825000D03*
X158825000Y-57475000D03*
X158825000Y-58125000D03*
X158825000Y-58775000D03*
X158825000Y-59425000D03*
X158825000Y-60075000D03*
X158825000Y-60725000D03*
X158825000Y-61375000D03*
X158825000Y-62025000D03*
D47*
X163175000Y-56325000D03*
%TD*%
D25*
%TO.C,C90*%
X166567700Y-102280000D03*
X166567700Y-101320000D03*
%TD*%
%TO.C,C98*%
X179507700Y-102560000D03*
X179507700Y-101600000D03*
%TD*%
D11*
%TO.C,IC16*%
X180986800Y-131081400D03*
X180986800Y-130581400D03*
X180986800Y-130081400D03*
X180986800Y-129581400D03*
X180986800Y-129081400D03*
X180986800Y-128581400D03*
X180986800Y-128081400D03*
X180986800Y-127581400D03*
X180986800Y-127081400D03*
X180986800Y-126581400D03*
X180986800Y-126081400D03*
X180986800Y-125581400D03*
X180986800Y-125081400D03*
X180986800Y-124581400D03*
X180986800Y-124081400D03*
X180986800Y-123581400D03*
D12*
X178998800Y-121593400D03*
X178498800Y-121593400D03*
X177998800Y-121593400D03*
X177498800Y-121593400D03*
X176998800Y-121593400D03*
X176498800Y-121593400D03*
X175998800Y-121593400D03*
X175498800Y-121593400D03*
X174998800Y-121593400D03*
X174498800Y-121593400D03*
X173998800Y-121593400D03*
X173498800Y-121593400D03*
X172998800Y-121593400D03*
X172498800Y-121593400D03*
X171998800Y-121593400D03*
X171498800Y-121593400D03*
D11*
X169510800Y-123581400D03*
X169510800Y-124081400D03*
X169510800Y-124581400D03*
X169510800Y-125081400D03*
X169510800Y-125581400D03*
X169510800Y-126081400D03*
X169510800Y-126581400D03*
X169510800Y-127081400D03*
X169510800Y-127581400D03*
X169510800Y-128081400D03*
X169510800Y-128581400D03*
X169510800Y-129081400D03*
X169510800Y-129581400D03*
X169510800Y-130081400D03*
X169510800Y-130581400D03*
X169510800Y-131081400D03*
D12*
X171498800Y-133069400D03*
X171998800Y-133069400D03*
X172498800Y-133069400D03*
X172998800Y-133069400D03*
X173498800Y-133069400D03*
X173998800Y-133069400D03*
X174498800Y-133069400D03*
X174998800Y-133069400D03*
X175498800Y-133069400D03*
X175998800Y-133069400D03*
X176498800Y-133069400D03*
X176998800Y-133069400D03*
X177498800Y-133069400D03*
X177998800Y-133069400D03*
X178498800Y-133069400D03*
X178998800Y-133069400D03*
D48*
X175248800Y-127331400D03*
%TD*%
D49*
%TO.C,U5*%
X152500000Y-47350000D03*
X150200000Y-47350000D03*
D50*
X150200000Y-53650000D03*
D49*
X147900000Y-47350000D03*
%TD*%
D29*
%TO.C,C14*%
X206475000Y-92825000D03*
X204925000Y-92825000D03*
%TD*%
D16*
%TO.C,C110*%
X158253800Y-79950500D03*
X159213800Y-79950500D03*
%TD*%
D51*
%TO.C,C3*%
X168725000Y-60575001D03*
X168725000Y-57624999D03*
%TD*%
D37*
%TO.C,R29*%
X135605000Y-60776000D03*
X133955000Y-60776000D03*
%TD*%
D14*
%TO.C,R3*%
X155125000Y-52675000D03*
X156775000Y-52675000D03*
%TD*%
D26*
%TO.C,C37*%
X133808000Y-107580000D03*
X135358000Y-107580000D03*
%TD*%
D43*
%TO.C,C17*%
X205775000Y-90900000D03*
X205775000Y-87825000D03*
%TD*%
D52*
%TO.C,C16*%
X144925000Y-137575000D03*
X141850000Y-137575000D03*
%TD*%
D26*
%TO.C,C31*%
X133808000Y-87800000D03*
X135358000Y-87800000D03*
%TD*%
D21*
%TO.C,C72*%
X129400000Y-48240000D03*
X129400000Y-49200000D03*
%TD*%
D22*
%TO.C,R71*%
X161400000Y-48350000D03*
X161400000Y-46700000D03*
%TD*%
D16*
%TO.C,C139*%
X188761300Y-51409600D03*
X189721300Y-51409600D03*
%TD*%
D21*
%TO.C,C45*%
X122708000Y-114940000D03*
X122708000Y-115900000D03*
%TD*%
D18*
%TO.C,R57*%
X205171300Y-54659600D03*
X205171300Y-56309600D03*
%TD*%
D33*
%TO.C,C13*%
X146850000Y-136775000D03*
X146850000Y-138325000D03*
%TD*%
D21*
%TO.C,C70*%
X139200000Y-48040000D03*
X139200000Y-49000000D03*
%TD*%
D23*
%TO.C,C71*%
X141160000Y-48200000D03*
X140200000Y-48200000D03*
%TD*%
D26*
%TO.C,C44*%
X144825000Y-97600000D03*
X146375000Y-97600000D03*
%TD*%
D21*
%TO.C,C48*%
X122758000Y-134440000D03*
X122758000Y-135400000D03*
%TD*%
D53*
%TO.C,LED1*%
X156475000Y-54425001D03*
X156475000Y-56024999D03*
%TD*%
D23*
%TO.C,C133*%
X183324800Y-120131400D03*
X182364800Y-120131400D03*
%TD*%
D16*
%TO.C,C88*%
X158200000Y-98546100D03*
X159160000Y-98546100D03*
%TD*%
D18*
%TO.C,R72*%
X184175000Y-136087500D03*
X184175000Y-137737500D03*
%TD*%
D21*
%TO.C,C129*%
X175974800Y-118731400D03*
X175974800Y-119691400D03*
%TD*%
D23*
%TO.C,C141*%
X201831300Y-50059600D03*
X200871300Y-50059600D03*
%TD*%
D22*
%TO.C,R26*%
X126000000Y-52825000D03*
X126000000Y-51175000D03*
%TD*%
D23*
%TO.C,C39*%
X142103400Y-107510000D03*
X141143400Y-107510000D03*
%TD*%
D16*
%TO.C,C75*%
X127240000Y-52600000D03*
X128200000Y-52600000D03*
%TD*%
D26*
%TO.C,C35*%
X133830000Y-94500000D03*
X135380000Y-94500000D03*
%TD*%
D21*
%TO.C,C46*%
X122708000Y-127850000D03*
X122708000Y-128810000D03*
%TD*%
D19*
%TO.C,U4*%
X208775000Y-88225000D03*
X208775000Y-90525000D03*
D20*
X215075000Y-90525000D03*
D19*
X208775000Y-92825000D03*
%TD*%
D23*
%TO.C,C76*%
X128740000Y-73576000D03*
X127780000Y-73576000D03*
%TD*%
D16*
%TO.C,C153*%
X206656300Y-63835600D03*
X207616300Y-63835600D03*
%TD*%
D28*
%TO.C,IC6*%
X126608000Y-94580000D03*
X126608000Y-95850000D03*
X126608000Y-97120000D03*
X126608000Y-98390000D03*
X132030000Y-98390000D03*
X132030000Y-97120000D03*
X132030000Y-95850000D03*
X132030000Y-94580000D03*
%TD*%
D18*
%TO.C,R73*%
X179675000Y-136075000D03*
X179675000Y-137725000D03*
%TD*%
D28*
%TO.C,IC4*%
X126608000Y-87910000D03*
X126608000Y-89180000D03*
X126608000Y-90450000D03*
X126608000Y-91720000D03*
X132030000Y-91720000D03*
X132030000Y-90450000D03*
X132030000Y-89180000D03*
X132030000Y-87910000D03*
%TD*%
D30*
%TO.C,R7*%
X124408000Y-108575000D03*
X124408000Y-111500000D03*
%TD*%
D28*
%TO.C,IC1*%
X139445000Y-79105000D03*
X139445000Y-80375000D03*
X139445000Y-81645000D03*
X139445000Y-82915000D03*
X144867000Y-82915000D03*
X144867000Y-81645000D03*
X144867000Y-80375000D03*
X144867000Y-79105000D03*
%TD*%
D22*
%TO.C,R63*%
X156700000Y-131100000D03*
X156700000Y-129450000D03*
%TD*%
D16*
%TO.C,C150*%
X192625000Y-138275000D03*
X193585000Y-138275000D03*
%TD*%
D23*
%TO.C,C124*%
X180285000Y-134512500D03*
X179325000Y-134512500D03*
%TD*%
D19*
%TO.C,U2*%
X200425000Y-77225000D03*
X200425000Y-79525000D03*
D20*
X206725000Y-79525000D03*
D19*
X200425000Y-81825000D03*
%TD*%
D37*
%TO.C,R32*%
X135430000Y-76976000D03*
X133780000Y-76976000D03*
%TD*%
D18*
%TO.C,R56*%
X193561300Y-60336600D03*
X193561300Y-61986600D03*
%TD*%
%TO.C,R35*%
X129580000Y-62376000D03*
X129580000Y-64026000D03*
%TD*%
%TO.C,R61*%
X203650000Y-54661600D03*
X203650000Y-56311600D03*
%TD*%
D23*
%TO.C,C128*%
X184008800Y-127581400D03*
X183048800Y-127581400D03*
%TD*%
D54*
%TO.C,IC17*%
X195901300Y-63686600D03*
X194631300Y-63686600D03*
X193361300Y-63686600D03*
X192091300Y-63686600D03*
X192091300Y-69110600D03*
X193361300Y-69110600D03*
X194631300Y-69110600D03*
X195901300Y-69110600D03*
%TD*%
D23*
%TO.C,C123*%
X184008800Y-125581400D03*
X183048800Y-125581400D03*
%TD*%
D16*
%TO.C,C57*%
X142140000Y-113420100D03*
X143100000Y-113420100D03*
%TD*%
D23*
%TO.C,C38*%
X142856900Y-99600000D03*
X141896900Y-99600000D03*
%TD*%
D18*
%TO.C,R74*%
X182675000Y-136087500D03*
X182675000Y-137737500D03*
%TD*%
D16*
%TO.C,C42*%
X144720000Y-98800000D03*
X145680000Y-98800000D03*
%TD*%
%TO.C,C127*%
X166588800Y-127381400D03*
X167548800Y-127381400D03*
%TD*%
%TO.C,C95*%
X158200000Y-97556100D03*
X159160000Y-97556100D03*
%TD*%
%TO.C,C134*%
X199070300Y-63669700D03*
X200030300Y-63669700D03*
%TD*%
D22*
%TO.C,R1*%
X137667000Y-83295000D03*
X137667000Y-81645000D03*
%TD*%
D23*
%TO.C,C84*%
X134112000Y-55200000D03*
X133152000Y-55200000D03*
%TD*%
D14*
%TO.C,R11*%
X147375000Y-100600000D03*
X149025000Y-100600000D03*
%TD*%
D26*
%TO.C,C20*%
X146849000Y-89282500D03*
X148399000Y-89282500D03*
%TD*%
D16*
%TO.C,C144*%
X193931300Y-56260600D03*
X194891300Y-56260600D03*
%TD*%
D30*
%TO.C,R14*%
X124358000Y-121850000D03*
X124358000Y-124775000D03*
%TD*%
D22*
%TO.C,R53*%
X182737800Y-122931400D03*
X182737800Y-121281400D03*
%TD*%
D55*
%TO.C,U3*%
X142250000Y-134575000D03*
X144550000Y-134575000D03*
D56*
X144550000Y-128275000D03*
D55*
X146850000Y-134575000D03*
%TD*%
D14*
%TO.C,R10*%
X147325000Y-102100000D03*
X148975000Y-102100000D03*
%TD*%
D54*
%TO.C,IC19*%
X127980000Y-71400000D03*
X129250000Y-71400000D03*
X130520000Y-71400000D03*
X131790000Y-71400000D03*
X133060000Y-71400000D03*
X134330000Y-71400000D03*
X135600000Y-71400000D03*
X135600000Y-65976000D03*
X134330000Y-65976000D03*
X133060000Y-65976000D03*
X131790000Y-65976000D03*
X130520000Y-65976000D03*
X129250000Y-65976000D03*
X127980000Y-65976000D03*
%TD*%
D16*
%TO.C,C151*%
X192148800Y-117231400D03*
X193108800Y-117231400D03*
%TD*%
%TO.C,C131*%
X174015000Y-134512500D03*
X174975000Y-134512500D03*
%TD*%
%TO.C,C149*%
X190150000Y-138275000D03*
X191110000Y-138275000D03*
%TD*%
D57*
%TO.C,R52*%
X173290000Y-117090000D03*
X174310000Y-117090000D03*
%TD*%
D21*
%TO.C,C27*%
X122858000Y-101540000D03*
X122858000Y-102500000D03*
%TD*%
D23*
%TO.C,C121*%
X179185000Y-119375000D03*
X178225000Y-119375000D03*
%TD*%
D43*
%TO.C,C25*%
X173075000Y-54000000D03*
X173075000Y-50925000D03*
%TD*%
D28*
%TO.C,IC11*%
X126558000Y-120980000D03*
X126558000Y-122250000D03*
X126558000Y-123520000D03*
X126558000Y-124790000D03*
X131980000Y-124790000D03*
X131980000Y-123520000D03*
X131980000Y-122250000D03*
X131980000Y-120980000D03*
%TD*%
D18*
%TO.C,R66*%
X184225000Y-121262500D03*
X184225000Y-122912500D03*
%TD*%
D16*
%TO.C,C122*%
X180075000Y-119350000D03*
X181035000Y-119350000D03*
%TD*%
D22*
%TO.C,R24*%
X126000000Y-48650000D03*
X126000000Y-47000000D03*
%TD*%
D21*
%TO.C,C79*%
X135380000Y-61976000D03*
X135380000Y-62936000D03*
%TD*%
D25*
%TO.C,C135*%
X201721300Y-48019600D03*
X201721300Y-47059600D03*
%TD*%
D58*
%TO.C,C1*%
X168875000Y-54125001D03*
X168875000Y-56024999D03*
%TD*%
D26*
%TO.C,C18*%
X191250000Y-88025000D03*
X192800000Y-88025000D03*
%TD*%
D19*
%TO.C,U6*%
X176075000Y-51300000D03*
X176075000Y-53600000D03*
D20*
X182375000Y-53600000D03*
D19*
X176075000Y-55900000D03*
%TD*%
D37*
%TO.C,R23*%
X141000000Y-46800000D03*
X139350000Y-46800000D03*
%TD*%
D16*
%TO.C,C73*%
X127440000Y-48400000D03*
X128400000Y-48400000D03*
%TD*%
D22*
%TO.C,R75*%
X181175000Y-137737500D03*
X181175000Y-136087500D03*
%TD*%
D23*
%TO.C,C125*%
X176835000Y-134512500D03*
X175875000Y-134512500D03*
%TD*%
%TO.C,C146*%
X201781300Y-48909600D03*
X200821300Y-48909600D03*
%TD*%
D16*
%TO.C,C21*%
X146889000Y-87982500D03*
X147849000Y-87982500D03*
%TD*%
D21*
%TO.C,C74*%
X129200000Y-52440000D03*
X129200000Y-53400000D03*
%TD*%
D14*
%TO.C,R9*%
X147375000Y-104700000D03*
X149025000Y-104700000D03*
%TD*%
D25*
%TO.C,C65*%
X124580000Y-68776000D03*
X124580000Y-67816000D03*
%TD*%
D22*
%TO.C,R30*%
X129980000Y-75226000D03*
X129980000Y-73576000D03*
%TD*%
D28*
%TO.C,IC7*%
X126608000Y-107660000D03*
X126608000Y-108930000D03*
X126608000Y-110200000D03*
X126608000Y-111470000D03*
X132030000Y-111470000D03*
X132030000Y-110200000D03*
X132030000Y-108930000D03*
X132030000Y-107660000D03*
%TD*%
D30*
%TO.C,R4*%
X124408000Y-88800000D03*
X124408000Y-91725000D03*
%TD*%
D37*
%TO.C,R59*%
X192081300Y-61910600D03*
X190431300Y-61910600D03*
%TD*%
D43*
%TO.C,C9*%
X197425000Y-79925000D03*
X197425000Y-76850000D03*
%TD*%
D33*
%TO.C,C59*%
X145450000Y-121550000D03*
X145450000Y-123100000D03*
%TD*%
D25*
%TO.C,C93*%
X177739900Y-102400000D03*
X177739900Y-101440000D03*
%TD*%
D16*
%TO.C,C118*%
X158253800Y-84122400D03*
X159213800Y-84122400D03*
%TD*%
D18*
%TO.C,R68*%
X174798600Y-136088900D03*
X174798600Y-137738900D03*
%TD*%
D24*
%TO.C,C119*%
X160600000Y-76175000D03*
X160600000Y-74625000D03*
%TD*%
D29*
%TO.C,C43*%
X140592000Y-98349000D03*
X139042000Y-98349000D03*
%TD*%
D23*
%TO.C,C136*%
X203180300Y-63669700D03*
X202220300Y-63669700D03*
%TD*%
D37*
%TO.C,R2*%
X136275000Y-81700000D03*
X134625000Y-81700000D03*
%TD*%
D21*
%TO.C,C106*%
X162000000Y-75400000D03*
X162000000Y-76360000D03*
%TD*%
%TO.C,C105*%
X163200000Y-75400000D03*
X163200000Y-76360000D03*
%TD*%
D23*
%TO.C,C102*%
X184781100Y-80799000D03*
X183821100Y-80799000D03*
%TD*%
D18*
%TO.C,R69*%
X182725000Y-131762500D03*
X182725000Y-133412500D03*
%TD*%
D40*
%TO.C,IC8*%
X144725000Y-101550000D03*
X144225000Y-101550000D03*
X143725000Y-101550000D03*
X143225000Y-101550000D03*
X142725000Y-101550000D03*
X142225000Y-101550000D03*
D41*
X141525000Y-102250000D03*
X141525000Y-102750000D03*
X141525000Y-103250000D03*
X141525000Y-103750000D03*
X141525000Y-104250000D03*
X141525000Y-104750000D03*
D40*
X142225000Y-105450000D03*
X142725000Y-105450000D03*
X143225000Y-105450000D03*
X143725000Y-105450000D03*
X144225000Y-105450000D03*
X144725000Y-105450000D03*
D41*
X145425000Y-104750000D03*
X145425000Y-104250000D03*
X145425000Y-103750000D03*
X145425000Y-103250000D03*
X145425000Y-102750000D03*
X145425000Y-102250000D03*
D42*
X143475000Y-103500000D03*
%TD*%
D24*
%TO.C,C87*%
X125980000Y-69176000D03*
X125980000Y-67626000D03*
%TD*%
D21*
%TO.C,C107*%
X178482400Y-75743200D03*
X178482400Y-76703200D03*
%TD*%
M02*
