M48
; DRILL file {KiCad 9.0.4} date 2025-11-18T18:04:32+0100
; FORMAT={-:-/ absolute / metric / decimal}
; #@! TF.CreationDate,2025-11-18T18:04:32+01:00
; #@! TF.GenerationSoftware,Kicad,Pcbnew,9.0.4
; #@! TF.FileFunction,Plated,1,4,PTH
FMAT,2
METRIC
; #@! TA.AperFunction,Plated,PTH,ViaDrill
T1C0.300
; #@! TA.AperFunction,Plated,PTH,ComponentDrill
T2C0.890
; #@! TA.AperFunction,Plated,PTH,ComponentDrill
T3C1.000
; #@! TA.AperFunction,Plated,PTH,ComponentDrill
T4C1.300
; #@! TA.AperFunction,Plated,PTH,ComponentDrill
T5C1.570
; #@! TA.AperFunction,Plated,PTH,ComponentDrill
T6C2.200
; #@! TA.AperFunction,Plated,PTH,ComponentDrill
T7C3.100
%
G90
G05
T1
X118.506Y-45.789
X118.622Y-127.686
X120.556Y-121.896
X121.195Y-116.042
X124.245Y-52.231
X125.538Y-132.873
X126.389Y-65.997
X126.639Y-64.494
X127.447Y-67.757
X127.684Y-69.604
X128.117Y-123.673
X128.142Y-90.521
X128.142Y-133.508
X128.32Y-103.123
X129.897Y-110.76
X130.089Y-95.551
X130.42Y-104.067
X130.6Y-99.8
X131.675Y-72.88
X132.0Y-61.9
X133.656Y-45.893
X134.022Y-110.59
X134.064Y-72.699
X134.296Y-104.333
X134.511Y-92.614
X134.9Y-135.955
X135.392Y-67.241
X135.46Y-46.464
X135.46Y-49.522
X135.964Y-69.506
X136.344Y-54.989
X136.526Y-120.737
X136.82Y-127.75
X137.3Y-97.9
X137.3Y-134.5
X137.6Y-73.6
X137.7Y-109.4
X138.542Y-113.612
X139.0Y-99.6
X139.318Y-101.068
X139.809Y-104.836
X142.206Y-106.441
X142.525Y-119.979
X142.569Y-57.337
X143.528Y-116.238
X143.7Y-107.5
X144.0Y-121.2
X144.351Y-112.438
X144.392Y-64.362
X144.4Y-103.325
X144.588Y-116.847
X144.87Y-68.294
X145.092Y-67.199
X145.264Y-48.716
X145.3Y-107.1
X145.306Y-64.374
X145.321Y-62.999
X145.5Y-69.057
X146.3Y-91.6
X146.413Y-68.125
X146.985Y-117.253
X147.043Y-103.162
X147.577Y-62.823
X147.825Y-68.784
X148.269Y-49.297
X148.4Y-115.06
X148.525Y-136.786
X148.662Y-133.605
X148.763Y-62.418
X148.8Y-85.0
X148.824Y-45.882
X148.933Y-82.053
X149.164Y-64.96
X149.186Y-67.144
X149.323Y-99.542
X149.324Y-78.603
X149.499Y-95.551
X151.21Y-107.26
X151.21Y-116.042
X151.3Y-65.6
X153.518Y-101.406
X153.627Y-69.572
X154.416Y-95.785
X155.008Y-94.013
X155.08Y-104.333
X155.2Y-132.6
X155.246Y-95.166
X155.972Y-93.111
X156.1Y-95.3
X156.988Y-127.814
X157.022Y-48.716
X157.097Y-60.418
X157.622Y-101.406
X157.905Y-56.825
X158.854Y-90.221
X159.027Y-83.125
X159.092Y-92.236
X159.399Y-76.575
X160.1Y-72.7
X160.37Y-60.418
X161.288Y-100.616
X161.795Y-54.319
X162.0Y-90.9
X162.006Y-96.433
X162.275Y-81.731
X162.322Y-95.551
X162.322Y-98.064
X162.616Y-89.136
X162.766Y-80.033
X163.102Y-74.358
X163.102Y-80.915
X163.2Y-87.1
X163.36Y-101.875
X163.679Y-77.139
X163.8Y-80.6
X164.61Y-133.426
X164.667Y-102.976
X164.918Y-101.486
X165.0Y-88.6
X165.064Y-80.148
X165.214Y-130.678
X165.31Y-98.227
X165.327Y-129.651
X165.394Y-73.806
X165.5Y-103.63
X166.3Y-65.1
X166.463Y-80.915
X166.689Y-104.504
X167.163Y-105.3
X167.199Y-129.575
X167.7Y-143.0
X167.9Y-97.8
X168.293Y-123.746
X168.301Y-127.109
X168.301Y-128.882
X168.5Y-52.0
X168.702Y-98.56
X168.766Y-101.299
X169.038Y-104.344
X169.049Y-76.841
X169.334Y-98.064
X169.454Y-121.896
X169.825Y-47.962
X169.836Y-101.592
X169.871Y-105.153
X170.29Y-121.07
X170.324Y-102.566
X170.786Y-130.614
X170.897Y-128.857
X171.0Y-127.1
X171.185Y-74.921
X171.185Y-76.648
X171.196Y-125.89
X171.4Y-129.6
X171.41Y-98.355
X171.866Y-130.834
X171.944Y-138.067
X172.238Y-117.177
X172.5Y-134.8
X172.508Y-129.383
X173.126Y-118.659
X173.316Y-105.538
X173.856Y-79.726
X173.908Y-101.032
X174.035Y-118.279
X174.384Y-102.09
X174.553Y-119.355
X174.75Y-65.404
X174.762Y-62.676
X174.783Y-105.151
X174.969Y-123.09
X174.995Y-80.915
X174.995Y-115.672
X175.045Y-139.531
X175.094Y-101.086
X175.202Y-119.963
X175.52Y-116.73
X175.58Y-135.422
X175.815Y-122.845
X175.874Y-77.081
X175.888Y-80.351
X176.311Y-115.105
X176.955Y-101.391
X177.153Y-131.848
X177.216Y-131.111
X177.399Y-122.816
X177.4Y-97.7
X177.521Y-53.801
X177.9Y-118.2
X178.265Y-54.57
X178.624Y-101.875
X179.815Y-124.345
X179.862Y-98.563
X180.15Y-121.128
X180.16Y-45.789
X180.16Y-86.754
X180.288Y-80.915
X180.412Y-88.763
X180.412Y-93.05
X180.485Y-97.639
X180.489Y-92.094
X180.776Y-100.522
X180.927Y-133.172
X180.941Y-42.918
X180.941Y-48.716
X181.348Y-98.977
X181.768Y-47.9
X181.848Y-77.063
X182.143Y-78.097
X182.3Y-118.3
X183.06Y-119.166
X183.387Y-93.338
X183.425Y-135.407
X183.488Y-47.468
X183.914Y-101.406
X183.914Y-139.53
X184.07Y-89.113
X184.307Y-93.014
X184.363Y-63.352
X184.444Y-86.179
X184.451Y-54.546
X184.671Y-90.547
X185.004Y-92.625
X185.101Y-124.683
X185.879Y-88.916
X186.084Y-121.593
X186.392Y-80.503
X186.649Y-82.033
X186.649Y-83.792
X186.887Y-93.013
X186.9Y-94.878
X187.073Y-89.983
X187.2Y-129.5
X187.25Y-91.599
X187.7Y-46.5
X188.6Y-132.8
X189.061Y-60.425
X189.19Y-88.149
X189.28Y-128.965
X189.559Y-45.656
X189.607Y-47.883
X189.608Y-49.618
X189.968Y-88.399
X190.2Y-46.3
X190.719Y-86.427
X190.861Y-89.117
X191.683Y-50.757
X191.749Y-47.691
X191.804Y-48.537
X191.998Y-94.727
X192.195Y-51.617
X192.284Y-49.455
X192.538Y-50.727
X192.817Y-95.535
X193.345Y-47.643
X193.409Y-45.243
X193.524Y-57.714
X193.689Y-91.434
X193.913Y-59.47
X194.994Y-47.923
X195.126Y-53.908
X195.24Y-81.313
X195.284Y-79.947
X195.376Y-95.143
X195.627Y-47.539
X195.666Y-56.261
X195.806Y-127.75
X196.504Y-47.636
X196.76Y-69.206
X197.588Y-47.761
X197.97Y-93.191
X198.377Y-45.066
X198.382Y-51.401
X198.384Y-49.107
X198.523Y-49.89
X198.82Y-74.892
X198.82Y-92.624
X198.984Y-95.551
X199.668Y-54.984
X199.706Y-46.028
X200.34Y-57.742
X202.0Y-86.4
X202.0Y-92.3
X202.072Y-54.134
X202.333Y-80.376
X204.481Y-80.915
X205.569Y-47.493
X206.857Y-57.498
X210.968Y-92.624
T2
X187.575Y-121.885
X187.575Y-124.425
X187.575Y-131.525
X187.575Y-134.065
X190.115Y-121.875
X190.115Y-123.895
X190.115Y-125.935
X190.115Y-130.015
X190.115Y-132.055
X190.115Y-134.06
X192.655Y-122.875
X192.655Y-124.915
X192.655Y-126.955
X192.655Y-128.995
X192.655Y-131.035
X192.655Y-133.075
T3
X113.4Y-141.4
X120.4Y-140.6
X124.0Y-44.6
X124.2Y-57.8
X125.2Y-84.0
X126.8Y-141.6
X133.4Y-140.6
X137.7Y-106.1
X138.4Y-140.4
X140.8Y-59.2
X141.6Y-75.2
X142.7Y-92.6
X143.7Y-141.1
X149.2Y-75.2
X149.2Y-92.6
X150.2Y-127.1
X151.6Y-59.0
X152.68Y-137.9
X152.68Y-140.44
X153.4Y-66.0
X154.2Y-81.1
X154.2Y-85.1
X154.2Y-89.1
X154.2Y-109.1
X154.2Y-112.6
X154.2Y-123.1
X154.2Y-127.1
X154.45Y-77.6
X154.7Y-73.6
X155.22Y-137.9
X155.22Y-140.44
X157.76Y-137.9
X157.76Y-140.44
X158.93Y-44.2
X160.3Y-137.9
X160.3Y-140.44
X161.47Y-44.2
X161.6Y-68.4
X162.84Y-137.9
X162.84Y-140.44
X164.01Y-44.2
X166.55Y-44.2
X167.2Y-68.6
X167.2Y-73.6
X173.6Y-44.6
X177.8Y-105.8
X178.2Y-110.1
X178.7Y-70.1
X183.2Y-104.6
X183.211Y-110.1
X186.2Y-56.6
X186.2Y-63.1
X186.35Y-114.931
X186.45Y-48.1
X188.89Y-114.931
X191.43Y-114.931
X193.97Y-114.931
X196.51Y-114.931
X207.041Y-47.661
X207.041Y-50.161
X207.041Y-52.161
X207.041Y-54.661
X211.7Y-75.6
X212.2Y-80.6
X217.7Y-75.52
X217.7Y-78.06
X217.7Y-80.6
X218.0Y-89.6
X218.7Y-95.6
T4
X115.7Y-46.2
X115.7Y-51.28
X115.7Y-56.36
X115.7Y-61.44
X115.7Y-66.52
X115.7Y-71.6
X115.7Y-76.68
X115.7Y-81.76
X115.7Y-86.84
X115.7Y-93.17
X115.7Y-98.25
X115.7Y-103.33
X115.7Y-108.41
X115.7Y-113.49
X115.7Y-118.57
X115.7Y-123.65
X115.7Y-128.73
X115.7Y-133.81
X188.825Y-100.645
X188.825Y-110.805
X198.985Y-100.645
X198.985Y-110.805
X214.941Y-63.781
X214.941Y-68.861
T5
X211.075Y-119.91
X211.075Y-136.04
T6
X192.625Y-105.725
T7
X209.751Y-44.591
X209.751Y-57.731
M30
