M48
; DRILL file {KiCad 9.0.0} date 2025-06-18T17:59:39+0200
; FORMAT={-:-/ absolute / metric / decimal}
; #@! TF.CreationDate,2025-06-18T17:59:39+02:00
; #@! TF.GenerationSoftware,Kicad,Pcbnew,9.0.0
; #@! TF.FileFunction,Plated,1,4,PTH
FMAT,2
METRIC
; #@! TA.AperFunction,Plated,PTH,ViaDrill
T1C0.300
; #@! TA.AperFunction,Plated,PTH,ViaDrill
T2C0.500
; #@! TA.AperFunction,Plated,PTH,ComponentDrill
T3C0.890
; #@! TA.AperFunction,Plated,PTH,ComponentDrill
T4C1.000
; #@! TA.AperFunction,Plated,PTH,ComponentDrill
T5C1.300
; #@! TA.AperFunction,Plated,PTH,ComponentDrill
T6C1.570
; #@! TA.AperFunction,Plated,PTH,ComponentDrill
T7C2.200
; #@! TA.AperFunction,Plated,PTH,ComponentDrill
T8C3.100
%
G90
G05
T1
X10.513Y-28.593
X10.575Y-10.275
X12.9Y-21.575
X13.45Y-3.125
X14.075Y-35.325
X14.325Y-16.8
X16.85Y-91.8
X16.9Y-47.05
X16.9Y-52.3
X16.9Y-58.9
X16.9Y-65.35
X16.9Y-72.1
X16.9Y-78.65
X16.9Y-85.15
X17.875Y-16.675
X17.875Y-35.075
X17.925Y-24.075
X17.95Y-5.825
X18.825Y-24.1
X19.1Y-35.05
X19.175Y-5.825
X19.275Y-16.675
X22.375Y-91.75
X22.575Y-42.625
X22.6Y-62.425
X22.6Y-69.225
X22.6Y-75.725
X22.625Y-82.075
X22.65Y-49.325
X22.65Y-88.675
X22.7Y-55.725
X25.55Y-39.075
X26.825Y-19.075
X29.3Y-74.725
X29.325Y-61.25
X29.447Y-53.175
X29.75Y-42.5
X30.0Y-67.0
X30.225Y-84.225
X30.775Y-15.725
X31.525Y-21.175
X31.625Y-15.05
X31.875Y-36.225
X31.9Y-22.05
X32.5Y-51.0
X32.5Y-51.75
X32.5Y-52.5
X32.5Y-53.25
X32.5Y-54.0
X32.5Y-54.75
X32.5Y-55.5
X32.5Y-58.5
X32.5Y-60.25
X32.75Y-63.0
X32.75Y-63.75
X32.75Y-64.5
X32.75Y-65.25
X32.75Y-66.0
X32.75Y-66.75
X32.75Y-67.5
X32.75Y-68.25
X32.75Y-69.0
X32.75Y-72.16
X32.75Y-73.98
X32.75Y-76.0
X32.75Y-76.75
X32.75Y-77.5
X32.75Y-78.25
X32.75Y-79.0
X32.75Y-79.75
X32.75Y-80.5
X32.782Y-69.75
X33.25Y-51.0
X33.5Y2.0
X33.5Y1.25
X33.5Y0.5
X33.5Y-0.25
X33.5Y-1.0
X33.5Y-1.75
X33.5Y-2.5
X33.5Y-3.25
X33.5Y-4.0
X33.5Y-4.75
X33.5Y-5.5
X33.5Y-6.25
X33.5Y-7.0
X33.5Y-7.75
X33.5Y-8.5
X33.5Y-9.25
X33.5Y-10.0
X33.5Y-10.75
X33.5Y-11.5
X33.5Y-12.25
X33.5Y-13.0
X33.5Y-13.75
X33.5Y-14.5
X33.5Y-15.25
X33.5Y-21.0
X33.5Y-21.75
X33.5Y-22.5
X33.5Y-80.5
X34.0Y-51.0
X34.175Y-53.7
X34.175Y-67.575
X34.25Y-15.825
X34.25Y-80.5
X34.75Y-51.0
X35.0Y-22.5
X35.0Y-80.5
X35.275Y-66.15
X35.275Y-77.25
X35.6Y-46.75
X35.75Y-22.5
X35.75Y-80.5
X36.5Y-22.5
X36.5Y-51.0
X36.5Y-80.5
X37.25Y-22.5
X37.25Y-51.0
X37.25Y-80.5
X38.0Y-22.5
X38.0Y-51.0
X38.0Y-80.5
X38.75Y-22.5
X38.75Y-51.0
X38.75Y-80.5
X39.5Y-22.5
X39.5Y-51.0
X39.5Y-80.5
X40.25Y-22.5
X40.25Y-51.0
X40.25Y-80.5
X40.994Y-23.234
X40.996Y-27.736
X41.0Y-34.461
X41.0Y-22.5
X41.0Y-24.0
X41.0Y-24.75
X41.0Y-25.5
X41.0Y-26.25
X41.0Y-27.0
X41.0Y-28.5
X41.0Y-29.25
X41.0Y-30.0
X41.0Y-30.75
X41.0Y-31.5
X41.0Y-32.25
X41.0Y-33.0
X41.0Y-33.75
X41.0Y-35.25
X41.0Y-36.0
X41.0Y-36.75
X41.0Y-37.5
X41.0Y-38.25
X41.0Y-39.0
X41.0Y-39.75
X41.0Y-40.5
X41.0Y-41.25
X41.0Y-42.0
X41.0Y-42.75
X41.0Y-43.5
X41.0Y-44.25
X41.0Y-45.0
X41.0Y-45.75
X41.0Y-46.5
X41.0Y-47.25
X41.0Y-48.0
X41.0Y-48.75
X41.0Y-49.5
X41.0Y-50.25
X41.0Y-51.0
X41.0Y-80.5
X41.0Y-81.25
X41.0Y-82.0
X41.0Y-82.75
X41.0Y-83.5
X41.0Y-84.25
X41.0Y-85.0
X41.0Y-85.75
X41.0Y-86.5
X41.0Y-87.25
X41.0Y-88.0
X41.0Y-88.75
X41.0Y-89.5
X41.0Y-90.25
X41.0Y-91.0
X41.0Y-91.75
X41.0Y-92.5
X41.0Y-93.25
X41.0Y-94.0
X41.0Y-94.75
X41.0Y-95.5
X41.45Y-17.55
X44.25Y-52.0
X44.25Y-52.75
X44.25Y-53.5
X45.071Y-45.318
X45.87Y-45.284
X46.67Y-45.276
X46.8Y-14.8
X47.47Y-45.303
X47.5Y-90.05
X48.27Y-45.303
X48.9Y-70.3
X48.9Y-71.8
X48.9Y-73.61
X48.9Y-74.35
X48.9Y-75.85
X48.9Y-76.75
X48.95Y-72.6
X50.625Y-8.15
X50.657Y-40.0
X50.657Y-47.5
X50.657Y-38.0
X50.696Y-51.033
X50.75Y-53.725
X50.771Y-52.7
X50.8Y-35.8
X50.826Y-36.6
X51.25Y-87.75
X51.35Y-35.325
X51.547Y-54.397
X52.15Y-35.3
X53.525Y-7.125
X53.625Y-21.275
X53.625Y-19.775
X53.625Y-20.525
X54.05Y-35.107
X54.375Y-19.775
X54.375Y-21.275
X54.391Y-20.508
X54.525Y-7.125
X54.55Y-32.55
X55.125Y-19.025
X55.125Y-19.775
X55.125Y-20.525
X55.125Y-21.275
X55.3Y-79.925
X55.3Y-80.9
X55.3Y-81.9
X55.5Y-59.275
X55.5Y-60.25
X55.5Y-61.25
X55.525Y-7.125
X55.55Y-32.6
X55.55Y-54.393
X55.875Y-16.025
X55.875Y-16.775
X55.875Y-17.525
X55.875Y-18.275
X55.875Y-19.025
X55.875Y-19.775
X55.875Y-20.525
X55.875Y-21.275
X56.525Y-7.125
X56.525Y-8.125
X56.55Y-54.393
X56.625Y-20.525
X56.625Y-21.275
X56.75Y-59.275
X56.75Y-60.25
X56.75Y-61.25
X57.375Y-20.525
X57.375Y-21.275
X57.525Y-7.125
X57.525Y-8.125
X58.125Y-20.525
X58.125Y-21.275
X58.55Y-32.65
X59.537Y-83.239
X59.55Y-32.7
X59.55Y-84.038
X59.725Y-93.138
X60.0Y-59.275
X60.0Y-60.25
X60.0Y-61.25
X60.05Y-54.393
X61.27Y-72.97
X61.525Y-56.8
X61.8Y-78.7
X61.903Y-73.844
X62.101Y-57.375
X62.175Y-94.825
X62.476Y-74.402
X62.55Y-35.107
X63.01Y-74.998
X63.05Y-56.8
X63.578Y-75.561
X63.601Y-57.407
X64.118Y-76.151
X64.156Y-87.777
X64.203Y-56.835
X64.78Y-57.431
X64.799Y-78.588
X65.0Y-87.725
X65.356Y-56.756
X65.994Y-87.756
X66.025Y-95.25
X66.525Y-54.375
X66.825Y-35.175
X66.825Y-11.825
X67.075Y-21.141
X67.799Y-87.875
X67.8Y-78.65
X68.049Y-83.5
X68.457Y-54.322
X68.575Y-85.475
X68.625Y-81.475
X69.053Y-35.103
X69.35Y-54.35
X69.8Y-35.75
X69.811Y-36.611
X69.943Y-38.5
X69.943Y-43.0
X69.943Y-51.0
X69.977Y-53.531
X71.099Y-84.381
X71.178Y-80.405
X71.499Y-91.024
X72.5Y-44.0
X72.675Y-87.65
X73.066Y-44.566
X73.125Y-76.075
X73.631Y-45.131
X73.657Y-41.817
X74.197Y-45.697
X74.25Y-85.4
X74.763Y-46.263
X75.328Y-46.828
X75.894Y-47.394
X76.462Y-47.957
X77.023Y-48.528
X77.592Y-49.091
X78.05Y-6.175
X78.1Y-5.375
X78.157Y-49.657
X78.7Y-3.3
X78.723Y-50.222
X79.288Y-50.788
X79.854Y-51.354
X80.05Y-42.85
X80.363Y-51.971
X80.4Y-7.3
X80.515Y-3.162
X80.524Y-38.85
X80.525Y-4.8
X80.775Y-0.125
X80.936Y-52.53
X81.509Y-53.088
X81.565Y-1.008
X81.825Y-2.95
X82.4Y-1.1
X82.978Y-2.935
X83.4Y-1.125
X84.066Y-10.142
X84.175Y-3.885
X84.225Y-35.825
X84.75Y-27.3
X84.982Y-3.877
X85.782Y-3.842
X86.35Y-0.15
X86.582Y-3.852
X87.381Y-3.814
X87.458Y-3.018
X87.6Y-4.8
X87.6Y-8.8
X87.627Y-10.164
X87.65Y-48.6
X87.7Y-6.3
X88.35Y-1.125
X89.525Y-13.1
X89.6Y-2.8
X91.925Y-35.425
X93.075Y-27.175
X94.429Y-3.265
X95.981Y-16.761
X95.981Y-17.761
X95.981Y-18.761
X95.981Y-22.761
X95.981Y-23.761
X95.981Y-24.761
X95.981Y-25.761
X95.981Y-26.761
X96.981Y-16.761
X96.981Y-17.761
X96.981Y-18.761
X96.981Y-22.761
X96.981Y-23.761
X96.981Y-24.761
X96.981Y-25.761
X96.981Y-26.761
X97.981Y-16.761
X97.981Y-17.761
X97.981Y-18.761
X97.981Y-19.761
X97.981Y-20.761
X97.981Y-21.761
X97.981Y-22.761
X97.981Y-23.761
X97.981Y-24.761
X97.981Y-25.761
X97.981Y-26.761
X98.981Y-16.761
X98.981Y-17.761
X98.981Y-18.761
X98.981Y-19.761
X98.981Y-20.761
X98.981Y-21.761
X98.981Y-22.761
X98.981Y-23.761
X98.981Y-24.761
X98.981Y-25.761
X98.981Y-26.761
X99.675Y-48.725
X99.981Y-16.761
X99.981Y-17.761
X99.981Y-18.761
X99.981Y-19.761
X99.981Y-20.761
X99.981Y-21.761
X99.981Y-22.761
X99.981Y-23.761
X99.981Y-24.761
X99.981Y-25.761
X99.981Y-26.761
X100.981Y-16.761
X100.981Y-17.761
X100.981Y-18.761
X100.981Y-19.761
X100.981Y-20.761
X100.981Y-21.761
X100.981Y-22.761
X100.981Y-23.761
X100.981Y-24.761
X100.981Y-25.761
X100.981Y-26.761
X103.925Y-50.825
T2
X34.525Y-3.275
X37.3Y-92.65
X41.75Y-12.15
X71.35Y-23.775
X75.425Y-9.525
T3
X76.375Y-77.785
X76.375Y-80.325
X76.375Y-87.425
X76.375Y-89.965
X78.915Y-77.775
X78.915Y-79.795
X78.915Y-81.835
X78.915Y-85.915
X78.915Y-87.955
X78.915Y-89.96
X81.455Y-78.775
X81.455Y-80.815
X81.455Y-82.855
X81.455Y-84.895
X81.455Y-86.935
X81.455Y-88.975
T4
X43.72Y-92.97
X46.26Y-92.97
X47.73Y-0.1
X48.8Y-92.97
X50.27Y-0.1
X51.34Y-92.97
X52.81Y-0.1
X53.88Y-92.97
X55.35Y-0.1
X75.15Y-70.831
X77.69Y-70.831
X80.23Y-70.831
X82.77Y-70.831
X85.31Y-70.831
X95.841Y-3.561
X95.841Y-6.061
X95.841Y-8.061
X95.841Y-10.561
T5
X4.5Y-2.1
X4.5Y-7.18
X4.5Y-12.26
X4.5Y-17.34
X4.5Y-22.42
X4.5Y-27.5
X4.5Y-32.58
X4.5Y-37.66
X4.5Y-42.74
X4.5Y-49.07
X4.5Y-54.15
X4.5Y-59.23
X4.5Y-64.31
X4.5Y-69.39
X4.5Y-74.47
X4.5Y-79.55
X4.5Y-84.63
X4.5Y-89.71
X77.625Y-56.545
X77.625Y-66.705
X87.785Y-56.545
X87.785Y-66.705
X103.741Y-19.681
X103.741Y-24.761
T6
X99.875Y-75.81
X99.875Y-91.94
T7
X81.425Y-61.625
T8
X98.551Y-0.491
X98.551Y-13.631
M30
