%TF.GenerationSoftware,KiCad,Pcbnew,9.0.0*%
%TF.CreationDate,2025-06-18T17:59:25+02:00*%
%TF.ProjectId,Nanopipets,4e616e6f-7069-4706-9574-732e6b696361,rev?*%
%TF.SameCoordinates,Original*%
%TF.FileFunction,Paste,Top*%
%TF.FilePolarity,Positive*%
%FSLAX46Y46*%
G04 Gerber Fmt 4.6, Leading zero omitted, Abs format (unit mm)*
G04 Created by KiCad (PCBNEW 9.0.0) date 2025-06-18 17:59:25*
%MOMM*%
%LPD*%
G01*
G04 APERTURE LIST*
G04 Aperture macros list*
%AMRoundRect*
0 Rectangle with rounded corners*
0 $1 Rounding radius*
0 $2 $3 $4 $5 $6 $7 $8 $9 X,Y pos of 4 corners*
0 Add a 4 corners polygon primitive as box body*
4,1,4,$2,$3,$4,$5,$6,$7,$8,$9,$2,$3,0*
0 Add four circle primitives for the rounded corners*
1,1,$1+$1,$2,$3*
1,1,$1+$1,$4,$5*
1,1,$1+$1,$6,$7*
1,1,$1+$1,$8,$9*
0 Add four rect primitives between the rounded corners*
20,1,$1+$1,$2,$3,$4,$5,0*
20,1,$1+$1,$4,$5,$6,$7,0*
20,1,$1+$1,$6,$7,$8,$9,0*
20,1,$1+$1,$8,$9,$2,$3,0*%
G04 Aperture macros list end*
%ADD10R,1.475000X0.300000*%
%ADD11R,0.300000X1.475000*%
%ADD12R,6.760000X5.765000*%
%ADD13RoundRect,0.200000X-0.200000X-0.275000X0.200000X-0.275000X0.200000X0.275000X-0.200000X0.275000X0*%
%ADD14R,1.900000X2.400000*%
%ADD15RoundRect,0.200000X0.275000X-0.200000X0.275000X0.200000X-0.275000X0.200000X-0.275000X-0.200000X0*%
%ADD16RoundRect,0.140000X-0.140000X-0.170000X0.140000X-0.170000X0.140000X0.170000X-0.140000X0.170000X0*%
%ADD17RoundRect,0.250000X-0.412500X-0.925000X0.412500X-0.925000X0.412500X0.925000X-0.412500X0.925000X0*%
%ADD18RoundRect,0.375000X-0.625000X-0.375000X0.625000X-0.375000X0.625000X0.375000X-0.625000X0.375000X0*%
%ADD19RoundRect,0.500000X-0.500000X-1.400000X0.500000X-1.400000X0.500000X1.400000X-0.500000X1.400000X0*%
%ADD20RoundRect,0.140000X-0.170000X0.140000X-0.170000X-0.140000X0.170000X-0.140000X0.170000X0.140000X0*%
%ADD21RoundRect,0.140000X0.140000X0.170000X-0.140000X0.170000X-0.140000X-0.170000X0.140000X-0.170000X0*%
%ADD22RoundRect,0.225000X0.250000X-0.225000X0.250000X0.225000X-0.250000X0.225000X-0.250000X-0.225000X0*%
%ADD23RoundRect,0.140000X0.170000X-0.140000X0.170000X0.140000X-0.170000X0.140000X-0.170000X-0.140000X0*%
%ADD24RoundRect,0.225000X-0.225000X-0.250000X0.225000X-0.250000X0.225000X0.250000X-0.225000X0.250000X0*%
%ADD25RoundRect,0.200000X-0.275000X0.200000X-0.275000X-0.200000X0.275000X-0.200000X0.275000X0.200000X0*%
%ADD26RoundRect,0.150000X-0.150000X0.587500X-0.150000X-0.587500X0.150000X-0.587500X0.150000X0.587500X0*%
%ADD27R,1.528000X0.650000*%
%ADD28RoundRect,0.225000X0.225000X0.250000X-0.225000X0.250000X-0.225000X-0.250000X0.225000X-0.250000X0*%
%ADD29RoundRect,0.250000X-0.625000X0.312500X-0.625000X-0.312500X0.625000X-0.312500X0.625000X0.312500X0*%
%ADD30RoundRect,0.225000X-0.250000X0.225000X-0.250000X-0.225000X0.250000X-0.225000X0.250000X0.225000X0*%
%ADD31R,0.800000X0.350000*%
%ADD32R,0.350000X0.800000*%
%ADD33R,2.800000X2.800000*%
%ADD34RoundRect,0.250000X0.335000X0.335000X-0.335000X0.335000X-0.335000X-0.335000X0.335000X-0.335000X0*%
%ADD35RoundRect,0.062500X0.337500X0.062500X-0.337500X0.062500X-0.337500X-0.062500X0.337500X-0.062500X0*%
%ADD36RoundRect,0.062500X0.062500X0.337500X-0.062500X0.337500X-0.062500X-0.337500X0.062500X-0.337500X0*%
%ADD37RoundRect,0.200000X0.200000X0.275000X-0.200000X0.275000X-0.200000X-0.275000X0.200000X-0.275000X0*%
%ADD38R,1.525000X0.650000*%
%ADD39R,1.200000X0.600000*%
%ADD40R,0.300000X0.850000*%
%ADD41R,0.850000X0.300000*%
%ADD42R,0.600000X0.600000*%
%ADD43RoundRect,0.250000X0.925000X-0.412500X0.925000X0.412500X-0.925000X0.412500X-0.925000X-0.412500X0*%
%ADD44R,0.300000X0.750000*%
%ADD45R,0.300000X0.600000*%
%ADD46R,0.600000X0.300000*%
%ADD47R,4.150000X2.425000*%
%ADD48R,4.440000X4.440000*%
%ADD49RoundRect,0.375000X-0.375000X0.625000X-0.375000X-0.625000X0.375000X-0.625000X0.375000X0.625000X0*%
%ADD50RoundRect,0.500000X-1.400000X0.500000X-1.400000X-0.500000X1.400000X-0.500000X1.400000X0.500000X0*%
%ADD51RoundRect,0.250000X0.650000X-0.325000X0.650000X0.325000X-0.650000X0.325000X-0.650000X-0.325000X0*%
%ADD52RoundRect,0.250000X0.412500X0.925000X-0.412500X0.925000X-0.412500X-0.925000X0.412500X-0.925000X0*%
%ADD53R,0.300000X0.900000*%
%ADD54R,0.900000X0.300000*%
%ADD55R,0.900000X0.900000*%
%ADD56R,0.950000X0.800000*%
%ADD57R,0.650000X1.525000*%
%ADD58RoundRect,0.375000X0.375000X-0.625000X0.375000X0.625000X-0.375000X0.625000X-0.375000X-0.625000X0*%
%ADD59RoundRect,0.500000X1.400000X-0.500000X1.400000X0.500000X-1.400000X0.500000X-1.400000X-0.500000X0*%
%ADD60RoundRect,0.135000X-0.135000X-0.185000X0.135000X-0.185000X0.135000X0.185000X-0.135000X0.185000X0*%
%ADD61RoundRect,0.250000X-0.475000X0.250000X-0.475000X-0.250000X0.475000X-0.250000X0.475000X0.250000X0*%
G04 APERTURE END LIST*
D10*
%TO.C,IC15*%
X49562000Y-36000000D03*
X49561999Y-36500000D03*
X49562000Y-37000000D03*
X49562000Y-37500000D03*
X49562000Y-38000000D03*
X49562000Y-38500000D03*
X49561999Y-39000000D03*
X49562000Y-39500000D03*
X49562000Y-40000000D03*
X49562000Y-40500000D03*
X49562000Y-41000000D03*
X49561999Y-41500000D03*
X49562000Y-42000000D03*
X49562000Y-42500000D03*
X49562000Y-43000001D03*
X49562000Y-43500000D03*
X49561999Y-44000000D03*
X49562000Y-44500000D03*
X49562000Y-45000000D03*
X49561999Y-45500000D03*
X49562000Y-46000000D03*
X49562000Y-46499999D03*
X49562000Y-47000000D03*
X49562000Y-47500000D03*
X49561999Y-48000000D03*
X49562000Y-48500000D03*
X49562000Y-49000000D03*
X49562000Y-49500000D03*
X49562000Y-50000000D03*
X49561999Y-50500000D03*
X49562000Y-51000000D03*
X49562000Y-51500000D03*
X49562000Y-52000000D03*
X49562000Y-52500000D03*
X49561999Y-53000000D03*
X49562000Y-53500000D03*
D11*
X51550000Y-55488000D03*
X52050000Y-55488001D03*
X52550000Y-55488000D03*
X53050000Y-55488000D03*
X53550000Y-55488000D03*
X54050000Y-55488000D03*
X54550000Y-55488001D03*
X55050000Y-55488000D03*
X55550000Y-55488000D03*
X56050000Y-55488000D03*
X56550000Y-55488000D03*
X57050000Y-55488001D03*
X57550000Y-55488000D03*
X58050000Y-55488000D03*
X58550001Y-55488000D03*
X59050000Y-55488000D03*
X59550000Y-55488001D03*
X60050000Y-55488000D03*
X60550000Y-55488000D03*
X61050000Y-55488001D03*
X61550000Y-55488000D03*
X62049999Y-55488000D03*
X62550000Y-55488000D03*
X63050000Y-55488000D03*
X63550000Y-55488001D03*
X64050000Y-55488000D03*
X64550000Y-55488000D03*
X65050000Y-55488000D03*
X65550000Y-55488000D03*
X66050000Y-55488001D03*
X66550000Y-55488000D03*
X67050000Y-55488000D03*
X67550000Y-55488000D03*
X68050000Y-55488000D03*
X68550000Y-55488001D03*
X69050000Y-55488000D03*
D10*
X71038000Y-53500000D03*
X71038001Y-53000000D03*
X71038000Y-52500000D03*
X71038000Y-52000000D03*
X71038000Y-51500000D03*
X71038000Y-51000000D03*
X71038001Y-50500000D03*
X71038000Y-50000000D03*
X71038000Y-49500000D03*
X71038000Y-49000000D03*
X71038000Y-48500000D03*
X71038001Y-48000000D03*
X71038000Y-47500000D03*
X71038000Y-47000000D03*
X71038000Y-46499999D03*
X71038000Y-46000000D03*
X71038001Y-45500000D03*
X71038000Y-45000000D03*
X71038000Y-44500000D03*
X71038001Y-44000000D03*
X71038000Y-43500000D03*
X71038000Y-43000001D03*
X71038000Y-42500000D03*
X71038000Y-42000000D03*
X71038001Y-41500000D03*
X71038000Y-41000000D03*
X71038000Y-40500000D03*
X71038000Y-40000000D03*
X71038000Y-39500000D03*
X71038001Y-39000000D03*
X71038000Y-38500000D03*
X71038000Y-38000000D03*
X71038000Y-37500000D03*
X71038000Y-37000000D03*
X71038001Y-36500000D03*
X71038000Y-36000000D03*
D11*
X69050000Y-34012000D03*
X68550000Y-34011999D03*
X68050000Y-34012000D03*
X67550000Y-34012000D03*
X67050000Y-34012000D03*
X66550000Y-34012000D03*
X66050000Y-34011999D03*
X65550000Y-34012000D03*
X65050000Y-34012000D03*
X64550000Y-34012000D03*
X64050000Y-34012000D03*
X63550000Y-34011999D03*
X63050000Y-34012000D03*
X62550000Y-34012000D03*
X62049999Y-34012000D03*
X61550000Y-34012000D03*
X61050000Y-34011999D03*
X60550000Y-34012000D03*
X60050000Y-34012000D03*
X59550000Y-34011999D03*
X59050000Y-34012000D03*
X58550001Y-34012000D03*
X58050000Y-34012000D03*
X57550000Y-34012000D03*
X57050000Y-34011999D03*
X56550000Y-34012000D03*
X56050000Y-34012000D03*
X55550000Y-34012000D03*
X55050000Y-34012000D03*
X54550000Y-34011999D03*
X54050000Y-34012000D03*
X53550000Y-34012000D03*
X53050000Y-34012000D03*
X52550000Y-34012000D03*
X52050000Y-34011999D03*
X51550000Y-34012000D03*
D12*
X60300000Y-44750000D03*
%TD*%
D13*
%TO.C,R16*%
X36375000Y-75849000D03*
X38025000Y-75849000D03*
%TD*%
D14*
%TO.C,Y1*%
X71324093Y-72124293D03*
X67224093Y-72124293D03*
%TD*%
D15*
%TO.C,R25*%
X14287750Y-12600000D03*
X14287750Y-10950000D03*
%TD*%
D16*
%TO.C,C152*%
X78450000Y-73150000D03*
X79410000Y-73150000D03*
%TD*%
D17*
%TO.C,C22*%
X38625000Y-250000D03*
X41700000Y-250000D03*
%TD*%
D18*
%TO.C,U1*%
X65024800Y-16540653D03*
X65024800Y-18840653D03*
D19*
X71324800Y-18840653D03*
D18*
X65024800Y-21140653D03*
%TD*%
D20*
%TO.C,C26*%
X11558000Y-44340000D03*
X11558000Y-45300000D03*
%TD*%
D15*
%TO.C,R70*%
X47650000Y-4250000D03*
X47650000Y-2600000D03*
%TD*%
D20*
%TO.C,C104*%
X69085534Y-31466417D03*
X69085534Y-32426417D03*
%TD*%
D21*
%TO.C,C41*%
X29756896Y-55550000D03*
X28796896Y-55550000D03*
%TD*%
D22*
%TO.C,C120*%
X61110000Y-32220000D03*
X61110000Y-30670000D03*
%TD*%
D16*
%TO.C,C112*%
X47119615Y-51174648D03*
X48079615Y-51174648D03*
%TD*%
D23*
%TO.C,C96*%
X69297665Y-57952967D03*
X69297665Y-56992967D03*
%TD*%
D21*
%TO.C,C76*%
X13762750Y-9100000D03*
X12802750Y-9100000D03*
%TD*%
D24*
%TO.C,C54*%
X22608000Y-83120000D03*
X24158000Y-83120000D03*
%TD*%
D25*
%TO.C,R40*%
X13700000Y-6300000D03*
X13700000Y-7950000D03*
%TD*%
D26*
%TO.C,Q1*%
X60562500Y-92312500D03*
X58662500Y-92312500D03*
X59612500Y-94187500D03*
%TD*%
D27*
%TO.C,IC5*%
X15508000Y-56980000D03*
X15508000Y-58250000D03*
X15508000Y-59520000D03*
X15508000Y-60790000D03*
X20930000Y-60790000D03*
X20930000Y-59520000D03*
X20930000Y-58250000D03*
X20930000Y-56980000D03*
%TD*%
D16*
%TO.C,C32*%
X22458000Y-58250000D03*
X23418000Y-58250000D03*
%TD*%
D28*
%TO.C,C154*%
X96581318Y-21035589D03*
X95031318Y-21035589D03*
%TD*%
D29*
%TO.C,R13*%
X13158000Y-84100000D03*
X13158000Y-87025000D03*
%TD*%
D20*
%TO.C,C4*%
X35200000Y-37545000D03*
X35200000Y-38505000D03*
%TD*%
D15*
%TO.C,R39*%
X22887750Y-33993300D03*
X22887750Y-32343300D03*
%TD*%
D24*
%TO.C,C50*%
X22658000Y-89750000D03*
X24208000Y-89750000D03*
%TD*%
D15*
%TO.C,R63*%
X46200000Y-90420000D03*
X46200000Y-88770000D03*
%TD*%
D29*
%TO.C,R6*%
X13230000Y-51375000D03*
X13230000Y-54300000D03*
%TD*%
D23*
%TO.C,C10*%
X35200000Y-36245000D03*
X35200000Y-35285000D03*
%TD*%
D21*
%TO.C,C60*%
X29800000Y-69321128D03*
X28840000Y-69321128D03*
%TD*%
D20*
%TO.C,C84*%
X12862750Y-28358300D03*
X12862750Y-29318300D03*
%TD*%
D30*
%TO.C,C86*%
X11637750Y-28633300D03*
X11637750Y-30183300D03*
%TD*%
D16*
%TO.C,C34*%
X22370000Y-51750000D03*
X23330000Y-51750000D03*
%TD*%
D29*
%TO.C,R5*%
X13308000Y-57850000D03*
X13308000Y-60775000D03*
%TD*%
D24*
%TO.C,C33*%
X22708000Y-56850000D03*
X24258000Y-56850000D03*
%TD*%
D26*
%TO.C,Q2*%
X66975000Y-92325000D03*
X65075000Y-92325000D03*
X66025000Y-94200000D03*
%TD*%
D20*
%TO.C,C47*%
X11508000Y-77350000D03*
X11508000Y-78310000D03*
%TD*%
D28*
%TO.C,C7*%
X87075000Y-37675000D03*
X85525000Y-37675000D03*
%TD*%
D16*
%TO.C,C89*%
X50040000Y-56950000D03*
X51000000Y-56950000D03*
%TD*%
D21*
%TO.C,C103*%
X73581066Y-35709056D03*
X72621066Y-35709056D03*
%TD*%
%TO.C,C58*%
X31225000Y-76800000D03*
X30265000Y-76800000D03*
%TD*%
D16*
%TO.C,C132*%
X60365000Y-75962500D03*
X61325000Y-75962500D03*
%TD*%
%TO.C,C51*%
X22358000Y-84520000D03*
X23318000Y-84520000D03*
%TD*%
D30*
%TO.C,C67*%
X28050000Y-19075000D03*
X28050000Y-20625000D03*
%TD*%
D16*
%TO.C,C49*%
X22398000Y-71600000D03*
X23358000Y-71600000D03*
%TD*%
D21*
%TO.C,C100*%
X73487000Y-51000000D03*
X72527000Y-51000000D03*
%TD*%
D16*
%TO.C,C53*%
X22308000Y-78150000D03*
X23268000Y-78150000D03*
%TD*%
D13*
%TO.C,R17*%
X36375000Y-74350000D03*
X38025000Y-74350000D03*
%TD*%
D23*
%TO.C,C64*%
X35550000Y-17850000D03*
X35550000Y-16890000D03*
%TD*%
D13*
%TO.C,R8*%
X36175000Y-62150000D03*
X37825000Y-62150000D03*
%TD*%
D20*
%TO.C,C115*%
X53550000Y-31567077D03*
X53550000Y-32527077D03*
%TD*%
D24*
%TO.C,C56*%
X22608000Y-70250000D03*
X24158000Y-70250000D03*
%TD*%
D21*
%TO.C,C97*%
X73450000Y-53900000D03*
X72490000Y-53900000D03*
%TD*%
D15*
%TO.C,R37*%
X22962750Y-15675000D03*
X22962750Y-14025000D03*
%TD*%
D20*
%TO.C,C2*%
X45774999Y-13365000D03*
X45774999Y-14325000D03*
%TD*%
D16*
%TO.C,C130*%
X55388800Y-84231392D03*
X56348800Y-84231392D03*
%TD*%
D15*
%TO.C,R67*%
X62050000Y-93637500D03*
X62050000Y-91987500D03*
%TD*%
D16*
%TO.C,C82*%
X14387750Y-23443300D03*
X15347750Y-23443300D03*
%TD*%
D14*
%TO.C,Y2*%
X87880286Y-16669714D03*
X91980286Y-16669714D03*
%TD*%
D21*
%TO.C,C137*%
X90582318Y-8610589D03*
X89622318Y-8610589D03*
%TD*%
D25*
%TO.C,R48*%
X16712750Y-4800000D03*
X16712750Y-6450000D03*
%TD*%
D22*
%TO.C,C11*%
X36467000Y-36395000D03*
X36467000Y-34845000D03*
%TD*%
D30*
%TO.C,C5*%
X36467000Y-37945000D03*
X36467000Y-39495000D03*
%TD*%
D25*
%TO.C,R36*%
X12150000Y-4812650D03*
X12150000Y-6462650D03*
%TD*%
D23*
%TO.C,C92*%
X56781875Y-57952967D03*
X56781875Y-56992967D03*
%TD*%
D24*
%TO.C,C99*%
X72850000Y-41000000D03*
X74400000Y-41000000D03*
%TD*%
D27*
%TO.C,IC10*%
X15386000Y-83230000D03*
X15386000Y-84500000D03*
X15386000Y-85770000D03*
X15386000Y-87040000D03*
X20808000Y-87040000D03*
X20808000Y-85770000D03*
X20808000Y-84500000D03*
X20808000Y-83230000D03*
%TD*%
D16*
%TO.C,C91*%
X47140645Y-52466182D03*
X48100645Y-52466182D03*
%TD*%
D31*
%TO.C,U7*%
X16612750Y-8775000D03*
X16612750Y-9425000D03*
X16612750Y-10075000D03*
X16612750Y-10725000D03*
D32*
X17637750Y-11750000D03*
X18287750Y-11750000D03*
X18937750Y-11750000D03*
X19587750Y-11750000D03*
D31*
X20612750Y-10725000D03*
X20612750Y-10075000D03*
X20612750Y-9425000D03*
X20612750Y-8775000D03*
D32*
X19587750Y-7750000D03*
X18937750Y-7750000D03*
X18287750Y-7750000D03*
X17637750Y-7750000D03*
D33*
X18612750Y-9750000D03*
%TD*%
D16*
%TO.C,C68*%
X23437750Y-9100000D03*
X24397750Y-9100000D03*
%TD*%
%TO.C,C55*%
X22358000Y-91100000D03*
X23318000Y-91100000D03*
%TD*%
D20*
%TO.C,C79*%
X21587750Y-29143300D03*
X21587750Y-30103300D03*
%TD*%
D29*
%TO.C,R12*%
X13158000Y-71225000D03*
X13158000Y-74150000D03*
%TD*%
D34*
%TO.C,U9*%
X85521318Y-8009589D03*
X85521318Y-6559589D03*
X85521318Y-5109589D03*
X84071318Y-8009589D03*
X84071318Y-6559589D03*
X84071318Y-5109589D03*
X82621318Y-8009589D03*
X82621318Y-6559589D03*
X82621318Y-5109589D03*
D35*
X88521318Y-10309589D03*
X88521318Y-9809589D03*
X88521318Y-9309589D03*
X88521318Y-8809589D03*
X88521318Y-8309589D03*
X88521318Y-7809589D03*
X88521318Y-7309589D03*
X88521318Y-6809589D03*
X88521318Y-6309589D03*
X88521318Y-5809589D03*
X88521318Y-5309589D03*
X88521318Y-4809589D03*
X88521318Y-4309589D03*
X88521318Y-3809589D03*
X88521318Y-3309589D03*
X88521318Y-2809589D03*
D36*
X87821318Y-2109589D03*
X87321318Y-2109589D03*
X86821318Y-2109589D03*
X86321318Y-2109589D03*
X85821318Y-2109589D03*
X85321318Y-2109589D03*
X84821318Y-2109589D03*
X84321318Y-2109589D03*
X83821318Y-2109589D03*
X83321318Y-2109589D03*
X82821318Y-2109589D03*
X82321318Y-2109589D03*
X81821318Y-2109589D03*
X81321318Y-2109589D03*
X80821318Y-2109589D03*
X80321318Y-2109589D03*
D35*
X79621318Y-2809589D03*
X79621318Y-3309589D03*
X79621318Y-3809589D03*
X79621318Y-4309589D03*
X79621318Y-4809589D03*
X79621318Y-5309589D03*
X79621318Y-5809589D03*
X79621318Y-6309589D03*
X79621318Y-6809589D03*
X79621318Y-7309589D03*
X79621318Y-7809589D03*
X79621318Y-8309589D03*
X79621318Y-8809589D03*
X79621318Y-9309589D03*
X79621318Y-9809589D03*
X79621318Y-10309589D03*
D36*
X80321318Y-11009589D03*
X80821318Y-11009589D03*
X81321318Y-11009589D03*
X81821318Y-11009589D03*
X82321318Y-11009589D03*
X82821318Y-11009589D03*
X83321318Y-11009589D03*
X83821318Y-11009589D03*
X84321318Y-11009589D03*
X84821318Y-11009589D03*
X85321318Y-11009589D03*
X85821318Y-11009589D03*
X86321318Y-11009589D03*
X86821318Y-11009589D03*
X87321318Y-11009589D03*
X87821318Y-11009589D03*
%TD*%
D15*
%TO.C,R21*%
X14287750Y-15650000D03*
X14287750Y-14000000D03*
%TD*%
D21*
%TO.C,C117*%
X73570000Y-39210000D03*
X72610000Y-39210000D03*
%TD*%
D30*
%TO.C,C23*%
X85576000Y-45475000D03*
X85576000Y-47025000D03*
%TD*%
D16*
%TO.C,C108*%
X47053750Y-36840428D03*
X48013750Y-36840428D03*
%TD*%
D15*
%TO.C,R22*%
X24912750Y-26243300D03*
X24912750Y-24593300D03*
%TD*%
D16*
%TO.C,C75*%
X15337750Y-31218300D03*
X16297750Y-31218300D03*
%TD*%
D23*
%TO.C,C94*%
X60034564Y-57952970D03*
X60034564Y-56992970D03*
%TD*%
D16*
%TO.C,C142*%
X83781318Y-26510589D03*
X84741318Y-26510589D03*
%TD*%
%TO.C,C113*%
X47190327Y-47214851D03*
X48150327Y-47214851D03*
%TD*%
D28*
%TO.C,C63*%
X29500000Y-68071128D03*
X27950000Y-68071128D03*
%TD*%
D20*
%TO.C,C116*%
X66292460Y-31643191D03*
X66292460Y-32603191D03*
%TD*%
D15*
%TO.C,R49*%
X21462750Y-15675000D03*
X21462750Y-14025000D03*
%TD*%
D37*
%TO.C,R58*%
X88131318Y-13560589D03*
X86481318Y-13560589D03*
%TD*%
%TO.C,R60*%
X93325000Y-3275000D03*
X91675000Y-3275000D03*
%TD*%
D16*
%TO.C,C143*%
X85390000Y-950000D03*
X86350000Y-950000D03*
%TD*%
%TO.C,C111*%
X47089106Y-38007155D03*
X48049106Y-38007155D03*
%TD*%
D24*
%TO.C,C40*%
X33975766Y-64500000D03*
X35525766Y-64500000D03*
%TD*%
%TO.C,C52*%
X22608000Y-76800000D03*
X24158000Y-76800000D03*
%TD*%
D21*
%TO.C,C126*%
X72808800Y-85481392D03*
X71848800Y-85481392D03*
%TD*%
D28*
%TO.C,C6*%
X62624800Y-21140653D03*
X61074800Y-21140653D03*
%TD*%
D16*
%TO.C,C145*%
X79825000Y-950000D03*
X80785000Y-950000D03*
%TD*%
D27*
%TO.C,IC12*%
X15408000Y-89830000D03*
X15408000Y-91100000D03*
X15408000Y-92370000D03*
X15408000Y-93640000D03*
X20830000Y-93640000D03*
X20830000Y-92370000D03*
X20830000Y-91100000D03*
X20830000Y-89830000D03*
%TD*%
D20*
%TO.C,C29*%
X11558000Y-64090000D03*
X11558000Y-65050000D03*
%TD*%
D16*
%TO.C,C36*%
X22298000Y-64830000D03*
X23258000Y-64830000D03*
%TD*%
D21*
%TO.C,C81*%
X21747750Y-12875000D03*
X20787750Y-12875000D03*
%TD*%
D38*
%TO.C,IC2*%
X28425000Y-41242500D03*
X28425000Y-42512500D03*
X28425000Y-43782500D03*
X28425000Y-45052500D03*
X33849000Y-45052500D03*
X33849000Y-43782500D03*
X33849000Y-42512500D03*
X33849000Y-41242500D03*
%TD*%
D22*
%TO.C,C19*%
X36700000Y-950000D03*
X36700000Y600000D03*
%TD*%
D20*
%TO.C,C71*%
X15362750Y-29168300D03*
X15362750Y-30128300D03*
%TD*%
D13*
%TO.C,R19*%
X36375000Y-70300000D03*
X38025000Y-70300000D03*
%TD*%
D28*
%TO.C,C24*%
X62575000Y-11800000D03*
X61025000Y-11800000D03*
%TD*%
D16*
%TO.C,C30*%
X22408000Y-45100000D03*
X23368000Y-45100000D03*
%TD*%
%TO.C,C148*%
X77560318Y-4600000D03*
X78520318Y-4600000D03*
%TD*%
D21*
%TO.C,C78*%
X13622750Y-27443300D03*
X12662750Y-27443300D03*
%TD*%
D15*
%TO.C,R30*%
X21887750Y-26268300D03*
X21887750Y-24618300D03*
%TD*%
%TO.C,R76*%
X52725000Y-4225000D03*
X52725000Y-2575000D03*
%TD*%
D39*
%TO.C,IC3*%
X81376000Y-45525000D03*
X81376001Y-46475000D03*
X81376000Y-47425000D03*
X83876000Y-47425000D03*
X83876000Y-45525000D03*
%TD*%
D20*
%TO.C,C77*%
X21737750Y-10740000D03*
X21737750Y-11700000D03*
%TD*%
D40*
%TO.C,IC13*%
X33725000Y-71100000D03*
X33225000Y-71100000D03*
X32725000Y-71100000D03*
X32225000Y-71100000D03*
X31725000Y-71100000D03*
X31225000Y-71100000D03*
D41*
X30525000Y-71800000D03*
X30525000Y-72300000D03*
X30525000Y-72800000D03*
X30525000Y-73300000D03*
X30525000Y-73800000D03*
X30525000Y-74300000D03*
D40*
X31225000Y-75000000D03*
X31725000Y-75000000D03*
X32225000Y-75000000D03*
X32725000Y-75000000D03*
X33225000Y-75000000D03*
X33725000Y-75000000D03*
D41*
X34425000Y-74300000D03*
X34425000Y-73800000D03*
X34425000Y-73300000D03*
X34425000Y-72800000D03*
X34425000Y-72300000D03*
X34425000Y-71800000D03*
D42*
X32475000Y-73050000D03*
%TD*%
D25*
%TO.C,R47*%
X19837750Y-32368300D03*
X19837750Y-34018300D03*
%TD*%
D22*
%TO.C,C66*%
X36800000Y-17550000D03*
X36800000Y-16000000D03*
%TD*%
D20*
%TO.C,C109*%
X62368018Y-31537126D03*
X62368018Y-32497126D03*
%TD*%
D16*
%TO.C,C61*%
X33875000Y-69900000D03*
X34835000Y-69900000D03*
%TD*%
D20*
%TO.C,C28*%
X11608000Y-50990000D03*
X11608000Y-51950000D03*
%TD*%
D28*
%TO.C,C138*%
X81181318Y-12410589D03*
X79631318Y-12410589D03*
%TD*%
D13*
%TO.C,R55*%
X79231318Y-16310589D03*
X80881318Y-16310589D03*
%TD*%
D16*
%TO.C,C73*%
X15487750Y-12850000D03*
X16447750Y-12850000D03*
%TD*%
D27*
%TO.C,IC9*%
X15408000Y-70330000D03*
X15408000Y-71600000D03*
X15408000Y-72870000D03*
X15408000Y-74140000D03*
X20830000Y-74140000D03*
X20830000Y-72870000D03*
X20830000Y-71600000D03*
X20830000Y-70330000D03*
%TD*%
D24*
%TO.C,C62*%
X34175000Y-68650000D03*
X35725000Y-68650000D03*
%TD*%
D21*
%TO.C,C15*%
X26909000Y-42482500D03*
X25949000Y-42482500D03*
%TD*%
D24*
%TO.C,C114*%
X72890000Y-37930000D03*
X74440000Y-37930000D03*
%TD*%
D21*
%TO.C,C101*%
X73540306Y-42992256D03*
X72580306Y-42992256D03*
%TD*%
D29*
%TO.C,R15*%
X13208000Y-90750000D03*
X13208000Y-93675000D03*
%TD*%
D21*
%TO.C,C147*%
X88821318Y-12159589D03*
X87861318Y-12159589D03*
%TD*%
D28*
%TO.C,C12*%
X26649000Y-41182500D03*
X25099000Y-41182500D03*
%TD*%
D13*
%TO.C,R18*%
X36375000Y-71800000D03*
X38025000Y-71800000D03*
%TD*%
D43*
%TO.C,C8*%
X61924800Y-19215653D03*
X61924800Y-16140653D03*
%TD*%
D28*
%TO.C,C140*%
X81181318Y-13910589D03*
X79631318Y-13910589D03*
%TD*%
D15*
%TO.C,R46*%
X15087750Y-26268300D03*
X15087750Y-24618300D03*
%TD*%
D13*
%TO.C,R54*%
X68425000Y-68706108D03*
X70075000Y-68706108D03*
%TD*%
D44*
%TO.C,PS1*%
X48675000Y-18850000D03*
D45*
X49325000Y-18925000D03*
X49975000Y-18925000D03*
X50625000Y-18925000D03*
X51275000Y-18925000D03*
X51925000Y-18925000D03*
X52575000Y-18925000D03*
X53225000Y-18925000D03*
X53875000Y-18925000D03*
D46*
X54925000Y-17925000D03*
X54925000Y-17275000D03*
X54925000Y-16625000D03*
X54925000Y-15975000D03*
X54925000Y-15325000D03*
X54925000Y-14675000D03*
X54925000Y-14025000D03*
X54925000Y-13375000D03*
X54925000Y-12725000D03*
X54925000Y-12075000D03*
X54925000Y-11425000D03*
X54925000Y-10775000D03*
X54925000Y-10125000D03*
D45*
X53875000Y-9125000D03*
X53225000Y-9125000D03*
X52575000Y-9125000D03*
X51925000Y-9125000D03*
X51275000Y-9125000D03*
X50625000Y-9125000D03*
X49975000Y-9125000D03*
X49325000Y-9125000D03*
X48675000Y-9125000D03*
D46*
X47625000Y-10125000D03*
X47625000Y-10775000D03*
X47625000Y-11425000D03*
X47625000Y-12075000D03*
X47625000Y-12725000D03*
X47625000Y-13375000D03*
X47625000Y-14025000D03*
X47625000Y-14675000D03*
X47625000Y-15325000D03*
X47625000Y-15975000D03*
X47625000Y-16625000D03*
X47625000Y-17275000D03*
X47625000Y-17925000D03*
D47*
X51975000Y-12225000D03*
%TD*%
D25*
%TO.C,R38*%
X12050000Y-23119300D03*
X12050000Y-24769300D03*
%TD*%
D23*
%TO.C,C90*%
X55367660Y-57952970D03*
X55367660Y-56992970D03*
%TD*%
%TO.C,C98*%
X68307715Y-57952969D03*
X68307715Y-56992969D03*
%TD*%
D10*
%TO.C,IC16*%
X69786800Y-86981392D03*
X69786800Y-86481392D03*
X69786800Y-85981392D03*
X69786800Y-85481392D03*
X69786800Y-84981392D03*
X69786800Y-84481392D03*
X69786800Y-83981392D03*
X69786800Y-83481392D03*
X69786800Y-82981392D03*
X69786800Y-82481392D03*
X69786800Y-81981392D03*
X69786800Y-81481392D03*
X69786800Y-80981392D03*
X69786800Y-80481392D03*
X69786800Y-79981392D03*
X69786800Y-79481392D03*
D11*
X67798800Y-77493392D03*
X67298800Y-77493392D03*
X66798800Y-77493392D03*
X66298800Y-77493392D03*
X65798800Y-77493392D03*
X65298800Y-77493392D03*
X64798800Y-77493392D03*
X64298800Y-77493392D03*
X63798800Y-77493392D03*
X63298800Y-77493392D03*
X62798800Y-77493392D03*
X62298800Y-77493392D03*
X61798800Y-77493392D03*
X61298800Y-77493392D03*
X60798800Y-77493392D03*
X60298800Y-77493392D03*
D10*
X58310800Y-79481392D03*
X58310800Y-79981392D03*
X58310800Y-80481392D03*
X58310800Y-80981392D03*
X58310800Y-81481392D03*
X58310800Y-81981392D03*
X58310800Y-82481392D03*
X58310800Y-82981392D03*
X58310800Y-83481392D03*
X58310800Y-83981392D03*
X58310800Y-84481392D03*
X58310800Y-84981392D03*
X58310800Y-85481392D03*
X58310800Y-85981392D03*
X58310800Y-86481392D03*
X58310800Y-86981392D03*
D11*
X60298800Y-88969392D03*
X60798800Y-88969392D03*
X61298800Y-88969392D03*
X61798800Y-88969392D03*
X62298800Y-88969392D03*
X62798800Y-88969392D03*
X63298800Y-88969392D03*
X63798800Y-88969392D03*
X64298800Y-88969392D03*
X64798800Y-88969392D03*
X65298800Y-88969392D03*
X65798800Y-88969392D03*
X66298800Y-88969392D03*
X66798800Y-88969392D03*
X67298800Y-88969392D03*
X67798800Y-88969392D03*
D48*
X64048800Y-83231392D03*
%TD*%
D49*
%TO.C,U5*%
X41300000Y-3250000D03*
X39000000Y-3250000D03*
D50*
X39000000Y-9550000D03*
D49*
X36700000Y-3250000D03*
%TD*%
D28*
%TO.C,C14*%
X95275000Y-48725000D03*
X93725000Y-48725000D03*
%TD*%
D16*
%TO.C,C110*%
X47053752Y-35850478D03*
X48013752Y-35850478D03*
%TD*%
D51*
%TO.C,C3*%
X57524999Y-16475001D03*
X57524999Y-13524999D03*
%TD*%
D25*
%TO.C,R34*%
X20362750Y-23093300D03*
X20362750Y-24743300D03*
%TD*%
D13*
%TO.C,R3*%
X43924999Y-8575000D03*
X45574999Y-8575000D03*
%TD*%
D24*
%TO.C,C37*%
X22608000Y-63480000D03*
X24158000Y-63480000D03*
%TD*%
D43*
%TO.C,C17*%
X94575000Y-46800000D03*
X94575000Y-43725000D03*
%TD*%
D52*
%TO.C,C16*%
X33725000Y-93475000D03*
X30650000Y-93475000D03*
%TD*%
D24*
%TO.C,C31*%
X22608000Y-43700000D03*
X24158000Y-43700000D03*
%TD*%
D21*
%TO.C,C83*%
X21587750Y-31218300D03*
X20627750Y-31218300D03*
%TD*%
D15*
%TO.C,R71*%
X50200000Y-4250000D03*
X50200000Y-2600000D03*
%TD*%
D16*
%TO.C,C139*%
X77561318Y-7309589D03*
X78521318Y-7309589D03*
%TD*%
D20*
%TO.C,C45*%
X11508000Y-70840000D03*
X11508000Y-71800000D03*
%TD*%
D53*
%TO.C,IC14*%
X33225000Y-17125000D03*
X32725000Y-17125000D03*
X32225000Y-17125000D03*
X31725000Y-17125000D03*
D54*
X31025000Y-17825000D03*
X31025000Y-18325000D03*
X31025000Y-18825000D03*
X31025000Y-19325000D03*
D53*
X31725000Y-20025000D03*
X32225000Y-20025000D03*
X32725000Y-20025000D03*
X33225000Y-20025000D03*
D54*
X33925000Y-19325000D03*
X33925000Y-18825000D03*
X33925000Y-18325000D03*
X33925000Y-17825000D03*
D55*
X32475000Y-18575000D03*
%TD*%
D25*
%TO.C,R32*%
X20487750Y-4800000D03*
X20487750Y-6450000D03*
%TD*%
%TO.C,R57*%
X93971318Y-10559589D03*
X93971318Y-12209589D03*
%TD*%
D30*
%TO.C,C13*%
X35650000Y-92675000D03*
X35650000Y-94225000D03*
%TD*%
D25*
%TO.C,R50*%
X16587750Y-23093300D03*
X16587750Y-24743300D03*
%TD*%
D24*
%TO.C,C44*%
X34175000Y-55000000D03*
X35725000Y-55000000D03*
%TD*%
D20*
%TO.C,C48*%
X11558000Y-90340000D03*
X11558000Y-91300000D03*
%TD*%
D15*
%TO.C,R51*%
X21312750Y-34018300D03*
X21312750Y-32368300D03*
%TD*%
D25*
%TO.C,R31*%
X17112750Y-32393300D03*
X17112750Y-34043300D03*
%TD*%
D21*
%TO.C,C72*%
X22647750Y-5150000D03*
X21687750Y-5150000D03*
%TD*%
D56*
%TO.C,LED1*%
X45274999Y-10325001D03*
X45274999Y-11924999D03*
%TD*%
D16*
%TO.C,C70*%
X23387750Y-27443300D03*
X24347750Y-27443300D03*
%TD*%
D21*
%TO.C,C133*%
X72124800Y-76031392D03*
X71164800Y-76031392D03*
%TD*%
D16*
%TO.C,C88*%
X47140645Y-54446081D03*
X48100645Y-54446081D03*
%TD*%
D25*
%TO.C,R72*%
X72975000Y-91987500D03*
X72975000Y-93637500D03*
%TD*%
%TO.C,R24*%
X23500000Y-6300000D03*
X23500000Y-7950000D03*
%TD*%
D20*
%TO.C,C129*%
X64774800Y-74631392D03*
X64774800Y-75591392D03*
%TD*%
D21*
%TO.C,C141*%
X90631318Y-5959589D03*
X89671318Y-5959589D03*
%TD*%
%TO.C,C74*%
X22572750Y-23443300D03*
X21612750Y-23443300D03*
%TD*%
%TO.C,C39*%
X30903400Y-63410000D03*
X29943400Y-63410000D03*
%TD*%
D24*
%TO.C,C35*%
X22630000Y-50400000D03*
X24180000Y-50400000D03*
%TD*%
D20*
%TO.C,C46*%
X11508000Y-83750000D03*
X11508000Y-84710000D03*
%TD*%
D18*
%TO.C,U4*%
X97575000Y-44125000D03*
X97575000Y-46425000D03*
D19*
X103875000Y-46425000D03*
D18*
X97575000Y-48725000D03*
%TD*%
D15*
%TO.C,R35*%
X15587750Y-34043300D03*
X15587750Y-32393300D03*
%TD*%
D16*
%TO.C,C80*%
X14562750Y-5175000D03*
X15522750Y-5175000D03*
%TD*%
%TO.C,C153*%
X95456318Y-19735589D03*
X96416318Y-19735589D03*
%TD*%
D27*
%TO.C,IC6*%
X15408000Y-50480000D03*
X15408000Y-51750000D03*
X15408000Y-53020000D03*
X15408000Y-54290000D03*
X20830000Y-54290000D03*
X20830000Y-53020000D03*
X20830000Y-51750000D03*
X20830000Y-50480000D03*
%TD*%
D25*
%TO.C,R73*%
X68475000Y-91975000D03*
X68475000Y-93625000D03*
%TD*%
D27*
%TO.C,IC4*%
X15408000Y-43810000D03*
X15408000Y-45080000D03*
X15408000Y-46350000D03*
X15408000Y-47620000D03*
X20830000Y-47620000D03*
X20830000Y-46350000D03*
X20830000Y-45080000D03*
X20830000Y-43810000D03*
%TD*%
D31*
%TO.C,U8*%
X16487750Y-27118300D03*
X16487750Y-27768300D03*
X16487750Y-28418300D03*
X16487750Y-29068300D03*
D32*
X17512750Y-30093300D03*
X18162750Y-30093300D03*
X18812750Y-30093300D03*
X19462750Y-30093300D03*
D31*
X20487750Y-29068300D03*
X20487750Y-28418300D03*
X20487750Y-27768300D03*
X20487750Y-27118300D03*
D32*
X19462750Y-26093300D03*
X18812750Y-26093300D03*
X18162750Y-26093300D03*
X17512750Y-26093300D03*
D33*
X18487750Y-28093300D03*
%TD*%
D29*
%TO.C,R7*%
X13208000Y-64475000D03*
X13208000Y-67400000D03*
%TD*%
D27*
%TO.C,IC1*%
X28245000Y-35005000D03*
X28245000Y-36275000D03*
X28245000Y-37545000D03*
X28245000Y-38815000D03*
X33667000Y-38815000D03*
X33667000Y-37545000D03*
X33667000Y-36275000D03*
X33667000Y-35005000D03*
%TD*%
D15*
%TO.C,R20*%
X25000000Y-7950000D03*
X25000000Y-6300000D03*
%TD*%
D16*
%TO.C,C150*%
X81425000Y-94175000D03*
X82385000Y-94175000D03*
%TD*%
D21*
%TO.C,C124*%
X69085000Y-90412500D03*
X68125000Y-90412500D03*
%TD*%
D20*
%TO.C,C65*%
X29300000Y-18775000D03*
X29300000Y-19735000D03*
%TD*%
D18*
%TO.C,U2*%
X89225000Y-33125000D03*
X89225000Y-35425000D03*
D19*
X95525000Y-35425000D03*
D18*
X89225000Y-37725000D03*
%TD*%
D25*
%TO.C,R56*%
X82361318Y-16236589D03*
X82361318Y-17886589D03*
%TD*%
D30*
%TO.C,C87*%
X11837750Y-10275000D03*
X11837750Y-11825000D03*
%TD*%
D25*
%TO.C,R61*%
X92450000Y-10561589D03*
X92450000Y-12211589D03*
%TD*%
D21*
%TO.C,C128*%
X72808800Y-83481392D03*
X71848800Y-83481392D03*
%TD*%
D25*
%TO.C,R29*%
X17300000Y-14002000D03*
X17300000Y-15652000D03*
%TD*%
D57*
%TO.C,IC17*%
X84701318Y-19586589D03*
X83431318Y-19586589D03*
X82161318Y-19586589D03*
X80891318Y-19586589D03*
X80891318Y-25010589D03*
X82161318Y-25010589D03*
X83431318Y-25010589D03*
X84701318Y-25010589D03*
%TD*%
D21*
%TO.C,C123*%
X72808800Y-81481392D03*
X71848800Y-81481392D03*
%TD*%
D16*
%TO.C,C57*%
X30790000Y-69320128D03*
X31750000Y-69320128D03*
%TD*%
D15*
%TO.C,R65*%
X48810000Y-90420000D03*
X48810000Y-88770000D03*
%TD*%
D21*
%TO.C,C38*%
X31656896Y-55500000D03*
X30696896Y-55500000D03*
%TD*%
D25*
%TO.C,R74*%
X71475000Y-91987500D03*
X71475000Y-93637500D03*
%TD*%
D16*
%TO.C,C42*%
X33925000Y-56250000D03*
X34885000Y-56250000D03*
%TD*%
%TO.C,C127*%
X55388800Y-83281392D03*
X56348800Y-83281392D03*
%TD*%
%TO.C,C95*%
X47140645Y-53456131D03*
X48100645Y-53456131D03*
%TD*%
%TO.C,C134*%
X87870286Y-19569714D03*
X88830286Y-19569714D03*
%TD*%
D15*
%TO.C,R1*%
X26467000Y-39195000D03*
X26467000Y-37545000D03*
%TD*%
D13*
%TO.C,R11*%
X36125000Y-56500000D03*
X37775000Y-56500000D03*
%TD*%
D24*
%TO.C,C20*%
X35649000Y-45182500D03*
X37199000Y-45182500D03*
%TD*%
D16*
%TO.C,C144*%
X82731318Y-12160589D03*
X83691318Y-12160589D03*
%TD*%
D15*
%TO.C,R44*%
X15212750Y-7950000D03*
X15212750Y-6300000D03*
%TD*%
D29*
%TO.C,R14*%
X13158000Y-77750000D03*
X13158000Y-80675000D03*
%TD*%
D15*
%TO.C,R53*%
X71537800Y-78831392D03*
X71537800Y-77181392D03*
%TD*%
D58*
%TO.C,U3*%
X31050000Y-90475000D03*
X33350000Y-90475000D03*
D59*
X33350000Y-84175000D03*
D58*
X35650000Y-90475000D03*
%TD*%
D13*
%TO.C,R10*%
X36125000Y-58000000D03*
X37775000Y-58000000D03*
%TD*%
D15*
%TO.C,R62*%
X43700000Y-90445000D03*
X43700000Y-88795000D03*
%TD*%
D16*
%TO.C,C151*%
X80948800Y-73131392D03*
X81908800Y-73131392D03*
%TD*%
D20*
%TO.C,C85*%
X13037750Y-10000000D03*
X13037750Y-10960000D03*
%TD*%
D16*
%TO.C,C131*%
X62815000Y-90412500D03*
X63775000Y-90412500D03*
%TD*%
%TO.C,C149*%
X78950000Y-94175000D03*
X79910000Y-94175000D03*
%TD*%
D25*
%TO.C,R26*%
X23412750Y-24618300D03*
X23412750Y-26268300D03*
%TD*%
D15*
%TO.C,R41*%
X22962750Y-12625000D03*
X22962750Y-10975000D03*
%TD*%
D60*
%TO.C,R52*%
X62090000Y-72990000D03*
X63110000Y-72990000D03*
%TD*%
D20*
%TO.C,C27*%
X11658000Y-57440000D03*
X11658000Y-58400000D03*
%TD*%
D21*
%TO.C,C121*%
X67985000Y-75275000D03*
X67025000Y-75275000D03*
%TD*%
D15*
%TO.C,R27*%
X14087750Y-31043300D03*
X14087750Y-29393300D03*
%TD*%
D43*
%TO.C,C25*%
X61875000Y-9900000D03*
X61875000Y-6825000D03*
%TD*%
D27*
%TO.C,IC11*%
X15358000Y-76880000D03*
X15358000Y-78150000D03*
X15358000Y-79420000D03*
X15358000Y-80690000D03*
X20780000Y-80690000D03*
X20780000Y-79420000D03*
X20780000Y-78150000D03*
X20780000Y-76880000D03*
%TD*%
D25*
%TO.C,R66*%
X73025000Y-77162500D03*
X73025000Y-78812500D03*
%TD*%
D16*
%TO.C,C122*%
X68875000Y-75250000D03*
X69835000Y-75250000D03*
%TD*%
D23*
%TO.C,C135*%
X90521318Y-3919589D03*
X90521318Y-2959589D03*
%TD*%
D15*
%TO.C,R64*%
X51300000Y-90420000D03*
X51300000Y-88770000D03*
%TD*%
D61*
%TO.C,C1*%
X57674999Y-10025001D03*
X57674999Y-11924999D03*
%TD*%
D24*
%TO.C,C18*%
X80050000Y-43925000D03*
X81600000Y-43925000D03*
%TD*%
D18*
%TO.C,U6*%
X64875000Y-7200000D03*
X64875000Y-9500000D03*
D19*
X71175000Y-9500000D03*
D18*
X64875000Y-11800000D03*
%TD*%
D15*
%TO.C,R28*%
X21987750Y-7950000D03*
X21987750Y-6300000D03*
%TD*%
%TO.C,R75*%
X69975000Y-93637500D03*
X69975000Y-91987500D03*
%TD*%
D21*
%TO.C,C125*%
X65635000Y-90412500D03*
X64675000Y-90412500D03*
%TD*%
D15*
%TO.C,R33*%
X15800000Y-15650000D03*
X15800000Y-14000000D03*
%TD*%
D21*
%TO.C,C146*%
X90581318Y-4809589D03*
X89621318Y-4809589D03*
%TD*%
D16*
%TO.C,C21*%
X35689000Y-43882500D03*
X36649000Y-43882500D03*
%TD*%
D13*
%TO.C,R9*%
X36175000Y-60600000D03*
X37825000Y-60600000D03*
%TD*%
D20*
%TO.C,C69*%
X15512750Y-10725000D03*
X15512750Y-11685000D03*
%TD*%
D25*
%TO.C,R45*%
X19987750Y-14025000D03*
X19987750Y-15675000D03*
%TD*%
D27*
%TO.C,IC7*%
X15408000Y-63560000D03*
X15408000Y-64830000D03*
X15408000Y-66100000D03*
X15408000Y-67370000D03*
X20830000Y-67370000D03*
X20830000Y-66100000D03*
X20830000Y-64830000D03*
X20830000Y-63560000D03*
%TD*%
D15*
%TO.C,R23*%
X14062750Y-34043300D03*
X14062750Y-32393300D03*
%TD*%
D25*
%TO.C,R42*%
X13587750Y-24618300D03*
X13587750Y-26268300D03*
%TD*%
D29*
%TO.C,R4*%
X13208000Y-44700000D03*
X13208000Y-47625000D03*
%TD*%
D37*
%TO.C,R59*%
X80881318Y-17810589D03*
X79231318Y-17810589D03*
%TD*%
D43*
%TO.C,C9*%
X86225000Y-35825000D03*
X86225000Y-32750000D03*
%TD*%
D30*
%TO.C,C59*%
X34250000Y-77450000D03*
X34250000Y-79000000D03*
%TD*%
D23*
%TO.C,C93*%
X66539948Y-57912210D03*
X66539948Y-56952210D03*
%TD*%
D16*
%TO.C,C118*%
X47053752Y-40022408D03*
X48013752Y-40022408D03*
%TD*%
D25*
%TO.C,R68*%
X63598586Y-91988914D03*
X63598586Y-93638914D03*
%TD*%
D22*
%TO.C,C119*%
X49930000Y-32220000D03*
X49930000Y-30670000D03*
%TD*%
D28*
%TO.C,C43*%
X29391952Y-54249000D03*
X27841952Y-54249000D03*
%TD*%
D21*
%TO.C,C136*%
X91980286Y-19569714D03*
X91020286Y-19569714D03*
%TD*%
D37*
%TO.C,R2*%
X25075000Y-37600000D03*
X23425000Y-37600000D03*
%TD*%
D20*
%TO.C,C106*%
X51195730Y-31567074D03*
X51195730Y-32527074D03*
%TD*%
%TO.C,C105*%
X52185681Y-31567077D03*
X52185681Y-32527077D03*
%TD*%
D21*
%TO.C,C102*%
X73581066Y-36699006D03*
X72621066Y-36699006D03*
%TD*%
D25*
%TO.C,R69*%
X71525000Y-87662500D03*
X71525000Y-89312500D03*
%TD*%
D15*
%TO.C,R43*%
X22812750Y-30993300D03*
X22812750Y-29343300D03*
%TD*%
D40*
%TO.C,IC8*%
X33525000Y-57450000D03*
X33025000Y-57450000D03*
X32525000Y-57450000D03*
X32025000Y-57450000D03*
X31525000Y-57450000D03*
X31025000Y-57450000D03*
D41*
X30325000Y-58150000D03*
X30325000Y-58650000D03*
X30325000Y-59150000D03*
X30325000Y-59650000D03*
X30325000Y-60150000D03*
X30325000Y-60650000D03*
D40*
X31025000Y-61350000D03*
X31525000Y-61350000D03*
X32025000Y-61350000D03*
X32525000Y-61350000D03*
X33025000Y-61350000D03*
X33525000Y-61350000D03*
D41*
X34225000Y-60650000D03*
X34225000Y-60150000D03*
X34225000Y-59650000D03*
X34225000Y-59150000D03*
X34225000Y-58650000D03*
X34225000Y-58150000D03*
D42*
X32275000Y-59400000D03*
%TD*%
D20*
%TO.C,C107*%
X67282410Y-31643191D03*
X67282410Y-32603191D03*
%TD*%
M02*
